<svg xmlns="http://www.w3.org/2000/svg" viewBox="0 0 28.66 117.71"><title>E-n</title><g id="Layer_2" data-name="Layer 2"><g id="Layer_1-2" data-name="Layer 1"><polygon points="14.33 0 7.17 59.77 21.5 59.77 14.33 0" style="fill:#d04547"/><polygon points="14.33 0 14.33 59.77 21.5 59.77 14.33 0" style="fill:#c7312d"/><polygon points="14.33 117.71 7.17 57.94 21.5 57.94 14.33 117.71" style="fill:#d3d3d3"/><polygon points="14.33 117.71 14.33 57.94 21.5 57.94 14.33 117.71" style="fill:#f0efef"/><path d="M24.47,48.72a14.33,14.33,0,1,1-20.27,0A14.35,14.35,0,0,1,24.47,48.72Z" style="fill:#ec635c"/><path d="M19.5,53.69a7.31,7.31,0,1,1-10.34,0A7.29,7.29,0,0,1,19.5,53.69Z"/></g></g></svg>