<svg xmlns="http://www.w3.org/2000/svg" viewBox="0 0 317.23 431.03"><title>E</title><g id="Layer_2" data-name="Layer 2"><g id="Layer_1-2" data-name="Layer 1"><path d="M0,0V339.19C0,389.91,41.58,431,92.88,431H224.36c51.29,0,92.87-41.12,92.87-91.84V0Z" style="fill:#c7312d"/><path d="M11.69,13.52V333.37A86.6,86.6,0,0,0,98.29,420H220.9a86.6,86.6,0,0,0,86.6-86.6V13.52Z" style="fill:#ec635c"/><circle cx="79.59" cy="376.04" r="15.4" style="fill:#f6989c"/><circle cx="79.59" cy="376.04" r="11.75" style="fill:#f37e7d"/><circle cx="240.26" cy="376.04" r="15.4" style="fill:#f6989c"/><circle cx="240.26" cy="376.04" r="11.75" style="fill:#f37e7d"/><line x1="74.92" y1="71.47" x2="74.92" y2="258.15" style="fill:none;stroke:#f4aaac;stroke-miterlimit:10;stroke-width:4px"/><line x1="239.8" y1="45.77" x2="239.8" y2="252.67" style="fill:none;stroke:#f4aaac;stroke-miterlimit:10;stroke-width:4px"/><line x1="241.92" y1="45.77" x2="120.45" y2="45.77" style="fill:none;stroke:#f4aaac;stroke-miterlimit:10;stroke-width:4px"/><line x1="158.48" y1="100.24" x2="158.48" y2="307.13" style="fill:none;stroke:#f4aaac;stroke-miterlimit:10;stroke-width:4px"/><rect x="26.35" y="14.45" width="1.06" height="7.77" style="fill:#ee2e2d;stroke:#fff;stroke-miterlimit:10"/><rect x="48.46" y="14.45" width="1.06" height="7.77" style="fill:#ee2e2d;stroke:#fff;stroke-miterlimit:10"/><rect x="37.99" y="14.45" width="1.06" height="5.1" style="fill:#010101;stroke:#fff;stroke-miterlimit:10"/><rect x="70.57" y="14.45" width="1.06" height="7.77" style="fill:#ee2e2d;stroke:#fff;stroke-miterlimit:10"/><rect x="60.1" y="14.45" width="1.06" height="5.1" style="fill:#010101;stroke:#fff;stroke-miterlimit:10"/><rect x="92.68" y="14.45" width="1.06" height="7.77" style="fill:#ee2e2d;stroke:#fff;stroke-miterlimit:10"/><rect x="82.21" y="14.45" width="1.06" height="5.1" style="fill:#010101;stroke:#fff;stroke-miterlimit:10"/><rect x="114.79" y="14.45" width="1.06" height="7.77" style="fill:#ee2e2d;stroke:#fff;stroke-miterlimit:10"/><rect x="104.32" y="14.45" width="1.06" height="5.1" style="fill:#010101;stroke:#fff;stroke-miterlimit:10"/><rect x="136.9" y="14.45" width="1.06" height="7.77" style="fill:#ee2e2d;stroke:#fff;stroke-miterlimit:10"/><rect x="126.43" y="14.45" width="1.06" height="5.1" style="fill:#010101;stroke:#fff;stroke-miterlimit:10"/><rect x="159.01" y="14.45" width="1.06" height="7.77" style="fill:#ee2e2d;stroke:#fff;stroke-miterlimit:10"/><rect x="148.54" y="14.45" width="1.06" height="5.1" style="fill:#010101;stroke:#fff;stroke-miterlimit:10"/><rect x="181.12" y="14.45" width="1.06" height="7.77" style="fill:#ee2e2d;stroke:#fff;stroke-miterlimit:10"/><rect x="170.65" y="14.45" width="1.06" height="5.1" style="fill:#010101;stroke:#fff;stroke-miterlimit:10"/><rect x="203.23" y="14.45" width="1.06" height="7.77" style="fill:#ee2e2d;stroke:#fff;stroke-miterlimit:10"/><rect x="192.76" y="14.45" width="1.06" height="5.1" style="fill:#010101;stroke:#fff;stroke-miterlimit:10"/><rect x="225.34" y="14.45" width="1.06" height="7.77" style="fill:#ee2e2d;stroke:#fff;stroke-miterlimit:10"/><rect x="214.87" y="14.45" width="1.06" height="5.1" style="fill:#010101;stroke:#fff;stroke-miterlimit:10"/><rect x="247.45" y="14.45" width="1.06" height="7.77" style="fill:#ee2e2d;stroke:#fff;stroke-miterlimit:10"/><rect x="236.98" y="14.45" width="1.06" height="5.1" style="fill:#010101;stroke:#fff;stroke-miterlimit:10"/><rect x="269.56" y="14.45" width="1.06" height="7.77" style="fill:#ee2e2d;stroke:#fff;stroke-miterlimit:10"/><rect x="259.09" y="14.45" width="1.06" height="5.1" style="fill:#010101;stroke:#fff;stroke-miterlimit:10"/><rect x="291.67" y="14.45" width="1.06" height="7.77" style="fill:#ee2e2d;stroke:#fff;stroke-miterlimit:10"/><rect x="281.2" y="14.45" width="1.06" height="5.1" style="fill:#010101;stroke:#fff;stroke-miterlimit:10"/><rect x="289.85" y="238.86" width="17.13" height="1.06" style="fill:#ee2e2d;stroke:#fff;stroke-miterlimit:10"/><rect x="289.85" y="216.75" width="17.13" height="1.06" style="fill:#ee2e2d;stroke:#fff;stroke-miterlimit:10"/><rect x="295.72" y="227.22" width="11.26" height="1.06" style="fill:#010101;stroke:#fff;stroke-miterlimit:10"/><rect x="289.85" y="194.64" width="17.13" height="1.06" style="fill:#ee2e2d;stroke:#fff;stroke-miterlimit:10"/><rect x="295.72" y="205.11" width="11.26" height="1.06" style="fill:#010101;stroke:#fff;stroke-miterlimit:10"/><rect x="289.85" y="172.53" width="17.13" height="1.06" style="fill:#ee2e2d;stroke:#fff;stroke-miterlimit:10"/><rect x="295.72" y="183" width="11.26" height="1.06" style="fill:#010101;stroke:#fff;stroke-miterlimit:10"/><rect x="289.85" y="150.42" width="17.13" height="1.06" style="fill:#ee2e2d;stroke:#fff;stroke-miterlimit:10"/><rect x="295.72" y="160.89" width="11.26" height="1.06" style="fill:#010101;stroke:#fff;stroke-miterlimit:10"/><rect x="289.85" y="128.31" width="17.13" height="1.06" style="fill:#ee2e2d;stroke:#fff;stroke-miterlimit:10"/><rect x="295.72" y="138.78" width="11.26" height="1.06" style="fill:#010101;stroke:#fff;stroke-miterlimit:10"/><rect x="289.85" y="106.2" width="17.13" height="1.06" style="fill:#ee2e2d;stroke:#fff;stroke-miterlimit:10"/><rect x="295.72" y="116.67" width="11.26" height="1.06" style="fill:#010101;stroke:#fff;stroke-miterlimit:10"/><rect x="289.85" y="84.09" width="17.13" height="1.06" style="fill:#ee2e2d;stroke:#fff;stroke-miterlimit:10"/><rect x="295.72" y="94.56" width="11.26" height="1.06" style="fill:#010101;stroke:#fff;stroke-miterlimit:10"/><rect x="289.85" y="61.98" width="17.13" height="1.06" style="fill:#ee2e2d;stroke:#fff;stroke-miterlimit:10"/><rect x="295.72" y="72.45" width="11.26" height="1.06" style="fill:#010101;stroke:#fff;stroke-miterlimit:10"/><rect x="289.85" y="39.87" width="17.13" height="1.06" style="fill:#ee2e2d;stroke:#fff;stroke-miterlimit:10"/><rect x="295.72" y="50.34" width="11.26" height="1.06" style="fill:#010101;stroke:#fff;stroke-miterlimit:10"/><rect x="289.85" y="349.45" width="15.63" height="0.97" style="fill:#ee2e2d;stroke:#fff;stroke-miterlimit:10"/><rect x="295.72" y="359.88" width="7.07" height="1.06" style="fill:#010101;stroke:#fff;stroke-miterlimit:10"/><rect x="289.85" y="327.3" width="17.13" height="1.06" style="fill:#ee2e2d;stroke:#fff;stroke-miterlimit:10"/><rect x="295.72" y="337.77" width="11.26" height="1.06" style="fill:#010101;stroke:#fff;stroke-miterlimit:10"/><rect x="289.85" y="305.19" width="17.13" height="1.06" style="fill:#ee2e2d;stroke:#fff;stroke-miterlimit:10"/><rect x="295.72" y="315.66" width="11.26" height="1.06" style="fill:#010101;stroke:#fff;stroke-miterlimit:10"/><rect x="289.85" y="283.08" width="17.13" height="1.06" style="fill:#ee2e2d;stroke:#fff;stroke-miterlimit:10"/><rect x="295.72" y="293.55" width="11.26" height="1.06" style="fill:#010101;stroke:#fff;stroke-miterlimit:10"/><rect x="289.85" y="260.97" width="17.13" height="1.06" style="fill:#ee2e2d;stroke:#fff;stroke-miterlimit:10"/><rect x="295.72" y="271.44" width="11.26" height="1.06" style="fill:#010101;stroke:#fff;stroke-miterlimit:10"/><rect x="295.72" y="249.33" width="11.26" height="1.06" style="fill:#010101;stroke:#fff;stroke-miterlimit:10"/><rect x="127.52" y="47.52" width="1.06" height="7.77" style="fill:#f4aaac"/><rect x="149.63" y="47.52" width="1.06" height="7.77" style="fill:#f4aaac"/><rect x="139.16" y="47.52" width="1.06" height="5.1" style="fill:#f4aaac"/><rect x="171.74" y="47.52" width="1.06" height="7.77" style="fill:#f4aaac"/><rect x="161.27" y="47.52" width="1.06" height="5.1" style="fill:#f4aaac"/><rect x="193.85" y="47.52" width="1.06" height="7.77" style="fill:#f4aaac"/><rect x="183.38" y="47.52" width="1.06" height="5.1" style="fill:#f4aaac"/><rect x="215.96" y="47.52" width="1.06" height="7.77" style="fill:#f4aaac"/><rect x="205.49" y="47.52" width="1.06" height="5.1" style="fill:#f4aaac"/><rect x="227.6" y="47.52" width="1.06" height="5.1" style="fill:#f4aaac"/><rect x="229.92" y="58.35" width="7.77" height="1.06" style="fill:#f4aaac"/><rect x="229.92" y="80.46" width="7.77" height="1.06" style="fill:#f4aaac"/><rect x="232.58" y="69.99" width="5.1" height="1.06" style="fill:#f4aaac"/><rect x="229.92" y="102.57" width="7.77" height="1.06" style="fill:#f4aaac"/><rect x="232.58" y="92.1" width="5.1" height="1.06" style="fill:#f4aaac"/><rect x="229.92" y="124.68" width="7.77" height="1.06" style="fill:#f4aaac"/><rect x="232.58" y="114.21" width="5.1" height="1.06" style="fill:#f4aaac"/><rect x="229.92" y="146.79" width="7.77" height="1.06" style="fill:#f4aaac"/><rect x="232.58" y="136.32" width="5.1" height="1.06" style="fill:#f4aaac"/><rect x="232.58" y="158.43" width="5.1" height="1.06" style="fill:#f4aaac"/><rect x="229.92" y="169.48" width="7.77" height="1.06" style="fill:#f4aaac"/><rect x="229.92" y="191.59" width="7.77" height="1.06" style="fill:#f4aaac"/><rect x="232.58" y="181.12" width="5.1" height="1.06" style="fill:#f4aaac"/><rect x="229.92" y="213.7" width="7.77" height="1.06" style="fill:#f4aaac"/><rect x="232.58" y="203.23" width="5.1" height="1.06" style="fill:#f4aaac"/><rect x="229.92" y="235.8" width="7.77" height="1.06" style="fill:#f4aaac"/><rect x="232.58" y="225.33" width="5.1" height="1.06" style="fill:#f4aaac"/><rect x="229.92" y="257.91" width="7.77" height="1.06" style="fill:#f4aaac"/><rect x="232.58" y="247.44" width="5.1" height="1.06" style="fill:#f4aaac"/><rect x="232.58" y="269.55" width="5.1" height="1.06" style="fill:#f4aaac"/><rect x="11.98" y="238.86" width="17.13" height="1.06" style="fill:#ee2e2d;stroke:#fff;stroke-miterlimit:10"/><rect x="11.98" y="216.75" width="17.13" height="1.06" style="fill:#ee2e2d;stroke:#fff;stroke-miterlimit:10"/><rect x="11.98" y="227.22" width="11.26" height="1.06" style="fill:#010101;stroke:#fff;stroke-miterlimit:10"/><rect x="11.98" y="194.64" width="17.13" height="1.06" style="fill:#ee2e2d;stroke:#fff;stroke-miterlimit:10"/><rect x="11.98" y="205.11" width="11.26" height="1.06" style="fill:#010101;stroke:#fff;stroke-miterlimit:10"/><rect x="11.98" y="172.53" width="17.13" height="1.06" style="fill:#ee2e2d;stroke:#fff;stroke-miterlimit:10"/><rect x="11.98" y="183" width="11.26" height="1.06" style="fill:#010101;stroke:#fff;stroke-miterlimit:10"/><rect x="11.98" y="150.42" width="17.13" height="1.06" style="fill:#ee2e2d;stroke:#fff;stroke-miterlimit:10"/><rect x="11.98" y="160.89" width="11.26" height="1.06" style="fill:#010101;stroke:#fff;stroke-miterlimit:10"/><rect x="11.98" y="128.31" width="17.13" height="1.06" style="fill:#ee2e2d;stroke:#fff;stroke-miterlimit:10"/><rect x="11.98" y="138.78" width="11.26" height="1.06" style="fill:#010101;stroke:#fff;stroke-miterlimit:10"/><rect x="11.98" y="106.2" width="17.13" height="1.06" style="fill:#ee2e2d;stroke:#fff;stroke-miterlimit:10"/><rect x="11.98" y="116.67" width="11.26" height="1.06" style="fill:#010101;stroke:#fff;stroke-miterlimit:10"/><rect x="11.98" y="84.09" width="17.13" height="1.06" style="fill:#ee2e2d;stroke:#fff;stroke-miterlimit:10"/><rect x="11.98" y="94.56" width="11.26" height="1.06" style="fill:#010101;stroke:#fff;stroke-miterlimit:10"/><rect x="11.98" y="61.98" width="17.13" height="1.06" style="fill:#ee2e2d;stroke:#fff;stroke-miterlimit:10"/><rect x="11.98" y="72.45" width="11.26" height="1.06" style="fill:#010101;stroke:#fff;stroke-miterlimit:10"/><rect x="11.98" y="39.87" width="17.13" height="1.06" style="fill:#ee2e2d;stroke:#fff;stroke-miterlimit:10"/><rect x="11.98" y="50.34" width="11.26" height="1.06" style="fill:#010101;stroke:#fff;stroke-miterlimit:10"/><rect x="13.48" y="349.45" width="15.63" height="0.97" style="fill:#ee2e2d;stroke:#fff;stroke-miterlimit:10"/><rect x="16.17" y="359.88" width="7.07" height="1.06" style="fill:#010101;stroke:#fff;stroke-miterlimit:10"/><rect x="11.98" y="327.3" width="17.13" height="1.06" style="fill:#ee2e2d;stroke:#fff;stroke-miterlimit:10"/><rect x="11.98" y="337.77" width="11.26" height="1.06" style="fill:#010101;stroke:#fff;stroke-miterlimit:10"/><rect x="11.98" y="305.19" width="17.13" height="1.06" style="fill:#ee2e2d;stroke:#fff;stroke-miterlimit:10"/><rect x="11.98" y="315.66" width="11.26" height="1.06" style="fill:#010101;stroke:#fff;stroke-miterlimit:10"/><rect x="11.98" y="283.08" width="17.13" height="1.06" style="fill:#ee2e2d;stroke:#fff;stroke-miterlimit:10"/><rect x="11.98" y="293.55" width="11.26" height="1.06" style="fill:#010101;stroke:#fff;stroke-miterlimit:10"/><rect x="11.98" y="260.97" width="17.13" height="1.06" style="fill:#ee2e2d;stroke:#fff;stroke-miterlimit:10"/><rect x="11.98" y="271.44" width="11.26" height="1.06" style="fill:#010101;stroke:#fff;stroke-miterlimit:10"/><rect x="11.98" y="249.33" width="11.26" height="1.06" style="fill:#010101;stroke:#fff;stroke-miterlimit:10"/><text transform="translate(24.75 30.63)" style="font-size:7.593009948730469px;fill:#f8bdbb;font-family:Helvetica">1</text><text transform="translate(47.12 30.63)" style="font-size:7.593009948730469px;fill:#f8bdbb;font-family:Helvetica">2</text><text transform="translate(68.98 30.63)" style="font-size:7.593009948730469px;fill:#f8bdbb;font-family:Helvetica">3</text><text transform="translate(91.32 30.63)" style="font-size:7.593009948730469px;fill:#f8bdbb;font-family:Helvetica">4</text><text transform="translate(113.34 30.63)" style="font-size:7.593009948730469px;fill:#f8bdbb;font-family:Helvetica">5</text><text transform="translate(135.54 30.63)" style="font-size:7.593009948730469px;fill:#f8bdbb;font-family:Helvetica">6</text><text transform="translate(157.46 30.63)" style="font-size:7.593009948730469px;fill:#f8bdbb;font-family:Helvetica">7</text><text transform="translate(179.82 30.63)" style="font-size:7.593009948730469px;fill:#f8bdbb;font-family:Helvetica">8</text><text transform="translate(201.9 30.63)" style="font-size:7.593009948730469px;fill:#f8bdbb;font-family:Helvetica">9</text><text transform="translate(221.72 30.63)" style="font-size:7.593009948730469px;fill:#f8bdbb;font-family:Helvetica">10</text><text transform="translate(244.13 30.63)" style="font-size:7.593009948730469px;fill:#f8bdbb;font-family:Helvetica"><tspan style="letter-spacing:-0.0736954536183057em">1</tspan><tspan x="3.66" y="0">1</tspan></text><text transform="translate(265.61 30.63)" style="font-size:7.593009948730469px;fill:#f8bdbb;font-family:Helvetica">12</text><text transform="translate(287.53 30.63)" style="font-size:7.593009948730469px;fill:#f8bdbb;font-family:Helvetica">13</text><text transform="translate(32.99 60.29) rotate(90)" style="font-size:7.593009948730469px;fill:#f8bdbb;font-family:Helvetica">1</text><text transform="translate(32.99 82.66) rotate(90)" style="font-size:7.593009948730469px;fill:#f8bdbb;font-family:Helvetica">2</text><text transform="translate(32.99 104.52) rotate(90)" style="font-size:7.593009948730469px;fill:#f8bdbb;font-family:Helvetica">3</text><text transform="translate(32.99 126.86) rotate(90)" style="font-size:7.593009948730469px;fill:#f8bdbb;font-family:Helvetica">4</text><text transform="translate(32.99 148.88) rotate(90)" style="font-size:7.593009948730469px;fill:#f8bdbb;font-family:Helvetica">5</text><text transform="translate(32.99 171.08) rotate(90)" style="font-size:7.593009948730469px;fill:#f8bdbb;font-family:Helvetica">6</text><text transform="translate(32.99 193) rotate(90)" style="font-size:7.593009948730469px;fill:#f8bdbb;font-family:Helvetica">7</text><text transform="translate(32.99 215.36) rotate(90)" style="font-size:7.593009948730469px;fill:#f8bdbb;font-family:Helvetica">8</text><text transform="translate(32.99 237.44) rotate(90)" style="font-size:7.593009948730469px;fill:#f8bdbb;font-family:Helvetica">9</text><text transform="translate(32.99 257.26) rotate(90)" style="font-size:7.593009948730469px;fill:#f8bdbb;font-family:Helvetica">10</text><text transform="translate(32.99 279.67) rotate(90)" style="font-size:7.593009948730469px;fill:#f8bdbb;font-family:Helvetica"><tspan style="letter-spacing:-0.0736954536183057em">1</tspan><tspan x="3.66" y="0">1</tspan></text><text transform="translate(32.99 301.15) rotate(90)" style="font-size:7.593009948730469px;fill:#f8bdbb;font-family:Helvetica">12</text><text transform="translate(32.99 323.07) rotate(90)" style="font-size:7.593009948730469px;fill:#f8bdbb;font-family:Helvetica">13</text><text transform="translate(32.99 345.13) rotate(90)" style="font-size:7.593009948730469px;fill:#f8bdbb;font-family:Helvetica">14</text><text transform="translate(32.99 38.4) rotate(90)" style="font-size:7.593009948730469px;fill:#f8bdbb;font-family:Helvetica">0</text><text transform="translate(285.84 330.61) rotate(-90)" style="font-size:7.593009948730469px;fill:#f8bdbb;font-family:Helvetica">1</text><text transform="translate(285.84 308.25) rotate(-90)" style="font-size:7.593009948730469px;fill:#f8bdbb;font-family:Helvetica">2</text><text transform="translate(285.84 286.38) rotate(-90)" style="font-size:7.593009948730469px;fill:#f8bdbb;font-family:Helvetica">3</text><text transform="translate(285.84 264.05) rotate(-90)" style="font-size:7.593009948730469px;fill:#f8bdbb;font-family:Helvetica">4</text><text transform="translate(285.84 242.03) rotate(-90)" style="font-size:7.593009948730469px;fill:#f8bdbb;font-family:Helvetica">5</text><text transform="translate(285.84 219.82) rotate(-90)" style="font-size:7.593009948730469px;fill:#f8bdbb;font-family:Helvetica">6</text><text transform="translate(285.84 197.9) rotate(-90)" style="font-size:7.593009948730469px;fill:#f8bdbb;font-family:Helvetica">7</text><text transform="translate(285.84 175.54) rotate(-90)" style="font-size:7.593009948730469px;fill:#f8bdbb;font-family:Helvetica">8</text><text transform="translate(285.84 153.46) rotate(-90)" style="font-size:7.593009948730469px;fill:#f8bdbb;font-family:Helvetica">9</text><text transform="translate(285.84 133.64) rotate(-90)" style="font-size:7.593009948730469px;fill:#f8bdbb;font-family:Helvetica">10</text><text transform="translate(285.84 111.23) rotate(-90)" style="font-size:7.593009948730469px;fill:#f8bdbb;font-family:Helvetica"><tspan style="letter-spacing:-0.0736954536183057em">1</tspan><tspan x="3.66" y="0">1</tspan></text><text transform="translate(285.84 89.75) rotate(-90)" style="font-size:7.593009948730469px;fill:#f8bdbb;font-family:Helvetica">12</text><text transform="translate(285.84 67.83) rotate(-90)" style="font-size:7.593009948730469px;fill:#f8bdbb;font-family:Helvetica">13</text><text transform="translate(285.84 45.77) rotate(-90)" style="font-size:7.593009948730469px;fill:#f8bdbb;font-family:Helvetica">14</text><text transform="translate(285.84 352.5) rotate(-90)" style="font-size:7.593009948730469px;fill:#f8bdbb;font-family:Helvetica">0</text><path d="M251.92,277c1.23-.51,3-.76,3.52-1.68s-.09-2.68-.21-4.06c0-.27-.12-.54-.14-.82-.06-1.06-.56-1.55-1.67-1.61a17.4,17.4,0,0,1-3.45-.5,7.66,7.66,0,0,1-6.17-6.26c-.64-3.4.75-6.07,3.46-8.1,1-.78,2.74-1.4,3-2.36.27-1.14-.74-2.57-1.2-3.88-.09-.26-.23-.5-.31-.77a1.52,1.52,0,0,0-2.12-1.18,14.23,14.23,0,0,1-3.63.31c-3.38-.12-6-1.53-7.39-4.75s-.61-6.2,1.69-8.78a13.47,13.47,0,0,1,1.45-1.38,1.4,1.4,0,0,0,.29-2.26,31.33,31.33,0,0,1-2-2.84c-.78-1.25-1.69-1.61-3-.83a8.63,8.63,0,0,1-2.16.86c-3.39.89-6.57.64-8.95-2.25s-2.4-6.09-.79-9.36,1.62-3.23-1.32-5.53c-2.2-1.71-2.2-1.71-4.41-.05s-4.82,2.82-7.76,2.12c-4.41-1.05-6.78-5.27-5.76-10.12.74-3.55.74-3.55-2.51-5-2.68-1.18-2.68-1.18-4.56,1.1a9.66,9.66,0,0,1-5.87,3.81c-5,.8-9.13-3.21-9.13-9,0-2.86,0-2.86-2.77-3.4l-.49-.09c-3.26-.57-3.26-.57-4.66,2.36-.14.3-.28.61-.44.9-2.7,4.84-7.94,6.06-12.11,2.8a9.06,9.06,0,0,1-3.2-5.5c-.57-2.69-.58-2.69-3.23-2.35-1.26.17-2.9-.07-3.68.63s-.8,2.37-1.12,3.62c-1.25,5-5.11,7.58-9.75,6.42a8.8,8.8,0,0,1-5.38-4.19c-1.88-3-1.87-3-5.25-1.85l-.31.12c-2.51.88-2.51.88-2.22,3.58.44,4.07-1.33,7.69-4.44,9.11-3.29,1.5-7.32.47-10.11-2.59-.3-.33-.6-.66-.86-1a1.23,1.23,0,0,0-2-.35c-1.19.82-2.44,1.55-3.65,2.32a1.58,1.58,0,0,0-.65,2.24,15.84,15.84,0,0,1,1.14,4.65c.34,6.4-6.27,10-12.35,6.78-1.08-.57-2.32-1.64-3.26-1.44s-1.87,1.61-2.76,2.53c-1.82,1.9-1.78,1.89-.28,4.08,2.08,3,2.95,6.28.93,9.67-1.79,3-4.68,3.93-8,3.64a13.08,13.08,0,0,1-2.59-.58c-2.45-.76-2.45-.78-3.76,1.5l-.25.44c-1.74,3.16-1.74,3.16.84,5.62,4,3.8,4.06,9,.18,12.21a9.22,9.22,0,0,1-6.89,1.88c-2.74-.17-2.74-.17-3.47,2.53a3,3,0,0,0-.07.32c-.95,3.6-.95,3.6,2.27,5.36s5.06,4.68,4.71,7.92a8.63,8.63,0,0,1-6.59,7.14c-1.25.33-3,.31-3.6,1.12-.66,1-.25,2.67-.3,4.06,0,.17,0,.33,0,.5-.16,1.61.56,2.19,2.16,2.6,2,.51,4.33,1.19,5.78,2.57,4,3.76,2.48,10-2.69,12.79-3.44,1.82-3.44,1.82-2.36,5.63.76,2.72.76,2.72,3.52,2.64a20.15,20.15,0,0,1,2.33,0A7.49,7.49,0,0,1,76,320.08a9.45,9.45,0,0,1-3.58,5.46c-2.25,1.76-2.25,1.77-.88,4.32l.24.44c1.68,3.07,1.67,3,5,2.18a13.46,13.46,0,0,1,3-.42,7.4,7.4,0,0,1,7.79,7.2,9.84,9.84,0,0,1-2.72,7.13c-.94,1.08-1,1.87.08,2.79.28.26.5.59.77.87,2.69,2.85,2.69,2.85,6,1s6.82-1.73,9.37.36a8.58,8.58,0,0,1,2.38,9.41c-.4,1.23-1.38,2.75-1,3.64.47,1.08,2.14,1.62,3.29,2.39.13.1.29.17.42.27,1.24.93,2.25.8,3.22-.49a12.48,12.48,0,0,1,2.17-2.06c4.28-3.41,10.42-1.8,12.08,3.41.63,2,.39,4.24.33,6.36,0,1,0,1.69,1.15,2,1.28.35,2.54.78,3.8,1.23a1.69,1.69,0,0,0,2.39-1,15.58,15.58,0,0,1,2.4-3.58c3.52-3.79,9.23-3.44,12,.94,1.1,1.74,1.43,4,1.87,6.1.22,1,.47,1.62,1.6,1.63,1.33,0,2.66.11,4,.18a1.72,1.72,0,0,0,2.08-1.58,13.11,13.11,0,0,1,1.16-3.45c1.34-2.6,3.31-4.48,6.43-4.64a7.78,7.78,0,0,1,7.46,3.81c.72,1.16,1.07,2.55,1.73,3.76.25.46.93,1,1.35,1a30.11,30.11,0,0,0,4.88-1,2,2,0,0,0,1-1.35c.19-1.13,0-2.33.22-3.47.54-3.38,2.22-6,5.68-6.89s6.31.4,8.65,3c.93,1,1.72,2.72,2.78,2.91s2.61-1,3.95-1.53c1.51-.6,2.1-1.41,1.5-3.16a9,9,0,0,1,.6-8c2.57-4.12,7.76-4.74,12.08-1.51,3.07,2.3,3.07,2.3,6-.2l.25-.22c1.86-1.67,1.86-1.66.7-3.93a12.06,12.06,0,0,1-.57-1.21c-1.35-3.45-1.4-6.72,1.35-9.59,2.09-2.18,5.77-2.79,9-1.5,1.25.5,2.75,1.62,3.7,1.27,1.14-.43,1.82-2.11,2.69-3.26.14-.17.25-.37.39-.54.8-1,.62-1.79-.28-2.72a16.14,16.14,0,0,1-2.45-3.34A7.59,7.59,0,0,1,238.19,324a9.13,9.13,0,0,1,6.78-.79c2.82.58,2.82.58,3.87-2.06,0-.05,0-.11,0-.16,1.36-3.47,1.36-3.47-1.64-5.66a8.7,8.7,0,0,1-3.65-8.87,7.92,7.92,0,0,1,6.88-5.9c4.58-.59,4.54-.6,4.9-5.31.1-1.3-.11-2.1-1.51-2.43a10.62,10.62,0,0,1-2.62-1.07c-3-1.63-4.82-4.12-4.69-7.63S248.69,278.3,251.92,277Z" style="fill:#adadad"/><ellipse cx="157.95" cy="284.14" rx="93.76" ry="92.55" style="fill:#f0efef"/><ellipse cx="157.95" cy="284.14" rx="83.03" ry="81.96" style="fill:#d3d3d3"/><ellipse cx="157.95" cy="284.14" rx="76.77" ry="75.78" style="fill:#fff"/><line x1="144.29" y1="239.95" x2="144.29" y2="359.26" style="fill:none;stroke:#d8d8d8;stroke-miterlimit:10;opacity:0.62"/><line x1="171.61" y1="239.95" x2="171.61" y2="359.26" style="fill:none;stroke:#d8d8d8;stroke-miterlimit:10;opacity:0.62"/><line x1="198.93" y1="220.04" x2="198.93" y2="348.23" style="fill:none;stroke:#d8d8d8;stroke-miterlimit:10;opacity:0.62"/><line x1="226.25" y1="249.49" x2="226.25" y2="318.78" style="fill:none;stroke:#d8d8d8;stroke-miterlimit:10;opacity:0.62"/><line x1="116.97" y1="220.04" x2="116.97" y2="348.23" style="fill:none;stroke:#d8d8d8;stroke-miterlimit:10;opacity:0.62"/><line x1="89.66" y1="249.49" x2="89.66" y2="318.78" style="fill:none;stroke:#d8d8d8;stroke-miterlimit:10;opacity:0.62"/><line x1="157.95" y1="208.41" x2="137.86" y2="254.41" style="fill:none;stroke:#d8d8d8;stroke-miterlimit:10;opacity:0.62"/><line x1="157.95" y1="208.41" x2="178.04" y2="254.41" style="fill:none;stroke:#d8d8d8;stroke-miterlimit:10;opacity:0.62"/><circle cx="157.95" cy="116.67" r="51.7" style="fill:#d3d3d3"/><circle cx="157.95" cy="116.67" r="45.2" style="fill:#f0efef"/><path d="M125.37,116.67a33.11,33.11,0,0,1,33.11-33.11" style="fill:none;stroke:#fff;stroke-miterlimit:10;stroke-width:9px"/><text transform="translate(149.56 228.28) scale(1.04 1)" style="font-size:21.37797737121582px;fill:#f9bc15;font-family:Helvetica-Bold, Helvetica;font-weight:700">N</text><text transform="translate(149.56 354.04) scale(1.04 1)" style="font-size:21.37797737121582px;fill:#f9bc15;font-family:Helvetica-Bold, Helvetica;font-weight:700">S</text><text transform="translate(84.3 290.67) scale(1.04 1)" style="font-size:21.37797737121582px;fill:#f9bc15;font-family:Helvetica-Bold, Helvetica;font-weight:700">W</text><text transform="translate(215.52 290.67) scale(1.04 1)" style="font-size:21.37797737121582px;fill:#f9bc15;font-family:Helvetica-Bold, Helvetica;font-weight:700">E</text><circle cx="157.95" cy="284.14" r="6.94" style="fill:#0b0b0b"/></g></g></svg>