<svg xmlns="http://www.w3.org/2000/svg" viewBox="0 0 458.37 174.02"><title>G1-n</title><g id="Layer_2" data-name="Layer 2"><g id="Layer_1-2" data-name="Layer 1"><path d="M458.37,91.34c-.26,21.14-98.08,13.41-131.77,11.92-45.42-2-74.2,11.41-84.23,18.23-25.07,17.07-76.2,53.17-129.51,52.52C45.08,173.18-.58,133.84,0,85.73S47.21-.82,115,0c54.94.68,114.53,48.34,124.92,59,7.91,8.11,34.43,19.5,79,18.71C361.7,76.94,458.61,71.7,458.37,91.34Z" style="fill:#b9bcc2"/><path d="M180,144.47s44.91-24.19,53.81-47.91c9.11-24.29-50.38-57.25-62.09-64.91s-48-26.35-91.06-15.06S24.46,49.17,18.87,67.35s-2.72,47.2,23.82,71.15S123.86,171.69,180,144.47Z" style="fill:#e8eaef"/></g></g></svg>