<svg xmlns="http://www.w3.org/2000/svg" viewBox="0 0 618.85 617.71"><title>G1</title><g id="Layer_2" data-name="Layer 2"><g id="Layer_1-2" data-name="Layer 1"><rect x="1.15" width="617.71" height="617.71" style="fill:#547dbf"/><rect x="97.84" y="96.69" width="424.32" height="424.32" style="fill:none;stroke:#3f69a5;stroke-miterlimit:10;stroke-width:9px"/><rect x="138.54" y="137.39" width="342.92" height="342.92" style="fill:none;stroke:#3f69a5;stroke-miterlimit:10;stroke-width:9px"/><rect x="269.25" y="3.17" width="68.71" height="584.36" transform="translate(598.96 -8.25) rotate(90)" style="fill:#547dbf;stroke:#3f69a5;stroke-miterlimit:10;stroke-width:9px"/><rect x="285.88" y="-100.16" width="51.12" height="815.14" rx="22.21" transform="translate(-126.15 310.26) rotate(-45)" style="fill:#547dbf;stroke:#3f69a5;stroke-miterlimit:10;stroke-width:9px"/><rect x="281.85" y="-100.16" width="51.12" height="815.14" rx="22.21" transform="translate(307.41 -127.33) rotate(45)" style="fill:#547dbf;stroke:#3f69a5;stroke-miterlimit:10;stroke-width:9px"/><rect x="278.53" y="20.65" width="68.71" height="575.17" style="fill:#547dbf;stroke:#3f69a5;stroke-miterlimit:10;stroke-width:9px"/><path d="M0,0V617.71H617.71V0ZM551.79,551.79H65.92V65.92H551.79Z" style="fill:#365f93"/><circle cx="38.68" cy="37.74" r="11.9" style="fill:#5986c5"/><circle cx="574.33" cy="40.49" r="11.9" style="fill:#5986c5"/><circle cx="39.59" cy="579.63" r="11.9" style="fill:#5986c5"/><circle cx="575.24" cy="582.38" r="11.9" style="fill:#5986c5"/><circle cx="312.88" cy="34.54" r="5.95" style="fill:#5986c5"/><circle cx="581.19" cy="295.35" r="5.95" style="fill:#5986c5"/><circle cx="38.68" cy="295.35" r="5.95" style="fill:#5986c5"/><circle cx="310" cy="582.38" r="5.95" style="fill:#5986c5"/><circle cx="309.43" cy="308.85" r="151.38" style="fill:#5986c5"/><circle cx="309.43" cy="308.85" r="25.79" style="fill:#fff"/></g></g></svg>