<svg xmlns="http://www.w3.org/2000/svg" viewBox="0 0 403.91 894.92"><title>G2</title><g id="Layer_2" data-name="Layer 2"><g id="Layer_1-2" data-name="Layer 1"><path d="M203.47,103.34c-29.13,0-52.83-23.18-52.83-51.67S174.34,0,203.47,0s52.84,23.18,52.84,51.67S232.61,103.34,203.47,103.34Zm0-86.13c-19.43,0-35.23,15.46-35.23,34.46S184,86.13,203.47,86.13s35.24-15.46,35.24-34.46S222.9,17.21,203.47,17.21Z" style="fill:#365f93"/><path d="M203.47,8c-24.68,0-44.7,19.57-44.7,43.71s20,43.71,44.7,43.71,44.7-19.57,44.7-43.71S228.16,8,203.47,8Zm0,78.17c-19.43,0-35.23-15.46-35.23-34.46S184,17.21,203.47,17.21s35.24,15.46,35.24,34.46S222.9,86.13,203.47,86.13Z" style="fill:#5986c5"/><path d="M179.23,56.29h45.44a11.94,11.94,0,0,1,11.94,11.94v48.44a0,0,0,0,1,0,0H167.29a0,0,0,0,1,0,0V68.23A11.94,11.94,0,0,1,179.23,56.29Z" style="fill:#365f93"/><path d="M175.47,105.68h0a2.94,2.94,0,0,1-3-2.91V67.15a2.94,2.94,0,0,1,3-2.91h0a3,3,0,0,1,3,2.91v35.62A3,3,0,0,1,175.47,105.68Z" style="fill:#5986c5"/><path d="M188.71,105.68h0a2.94,2.94,0,0,1-3-2.91V67.15a2.94,2.94,0,0,1,3-2.91h0a2.94,2.94,0,0,1,3,2.91v35.62A2.94,2.94,0,0,1,188.71,105.68Z" style="fill:#5986c5"/><path d="M202,105.68h0a3,3,0,0,1-3-2.91V67.15a3,3,0,0,1,3-2.91h0a2.94,2.94,0,0,1,3,2.91v35.62A2.94,2.94,0,0,1,202,105.68Z" style="fill:#5986c5"/><path d="M215.2,105.68h0a2.94,2.94,0,0,1-3-2.91V67.15a2.94,2.94,0,0,1,3-2.91h0a3,3,0,0,1,3,2.91v35.62A3,3,0,0,1,215.2,105.68Z" style="fill:#5986c5"/><path d="M228.44,105.68h0a3,3,0,0,1-3-2.91V67.15a3,3,0,0,1,3-2.91h0a2.94,2.94,0,0,1,3,2.91v35.62A2.94,2.94,0,0,1,228.44,105.68Z" style="fill:#5986c5"/><ellipse cx="201.95" cy="292.3" rx="201.95" ry="197.5" style="fill:#365f93"/><ellipse cx="201.95" cy="292.3" rx="187.78" ry="183.64" style="fill:#5986c5"/><ellipse cx="201.95" cy="292.3" rx="161.99" ry="158.42" style="fill:#d9e2ee"/><path d="M202,418.54c83.84,0,151.8-66.46,151.8-148.45a145.26,145.26,0,0,0-11.9-57.71c-28.11-47-80.23-78.5-139.9-78.5S90.17,165.42,62.06,212.38a145.05,145.05,0,0,0-11.9,57.71C50.16,352.08,118.12,418.54,202,418.54Z" style="fill:#ebf0f8"/><path d="M211,158.3h4.35v22.6h-2.7v0l-12.13-15.25V180.9H196.2V158.33h3.52l11.31,14Z" style="fill:#161d4b"/><path d="M95.32,301.26H91.63l-2.87-7.09-2.44-7.12-2.41,7.19-2.8,7H77.42L69,278.7h4.88L79.27,295l5.6-16.28H87.7L93.47,295l5.28-16.28h4.88Z" style="fill:#161d4b"/><path d="M335,301.26H317.69V278.7H335v4.12H322V288h12.5v4H322v5.09h13Z" style="fill:#161d4b"/><path d="M210.11,408.6a6.66,6.66,0,0,0-5.47-2.51c-3.23,0-4.78,1.32-4.78,3,0,2,2.37,2.52,5.14,2.84,4.81.58,9.29,1.81,9.29,7.19,0,5-4.55,7.19-9.69,7.19-4.71,0-8.34-1.42-10-5.55l3.63-1.83c1,2.48,3.69,3.57,6.49,3.57s5.31-.93,5.31-3.38c0-2.13-2.28-3-5.34-3.32-4.72-.55-9.07-1.77-9.07-6.83,0-4.65,4.68-6.55,8.93-6.58,3.6,0,7.32,1,9.07,4.48Z" style="fill:#161d4b"/><path d="M204.49,154.41a1.26,1.26,0,0,1-1.27-1.24V138.82a1.27,1.27,0,0,1,2.54,0v14.35A1.26,1.26,0,0,1,204.49,154.41Z" style="fill:#1761ae"/><path d="M204.49,447a1.25,1.25,0,0,1-1.27-1.24V431.4a1.27,1.27,0,0,1,2.54,0v14.35A1.25,1.25,0,0,1,204.49,447Z" style="fill:#1761ae"/><path d="M103.9,195.15a1.26,1.26,0,0,1-.89-.36L92.63,184.64a1.21,1.21,0,0,1,0-1.75,1.27,1.27,0,0,1,1.79,0L104.8,193a1.23,1.23,0,0,1,0,1.75A1.29,1.29,0,0,1,103.9,195.15Z" style="fill:#1761ae"/><path d="M315.45,402a1.26,1.26,0,0,1-.89-.36l-10.38-10.15a1.21,1.21,0,0,1,0-1.75,1.27,1.27,0,0,1,1.79,0l10.38,10.15a1.23,1.23,0,0,1,0,1.75A1.29,1.29,0,0,1,315.45,402Z" style="fill:#1761ae"/><path d="M62.24,293.52H47.56a1.24,1.24,0,1,1,0-2.48H62.24a1.24,1.24,0,1,1,0,2.48Z" style="fill:#1761ae"/><path d="M361.42,293.52H346.74a1.24,1.24,0,1,1,0-2.48h14.68a1.24,1.24,0,1,1,0,2.48Z" style="fill:#1761ae"/><path d="M93.53,402a1.29,1.29,0,0,1-.9-.36,1.21,1.21,0,0,1,0-1.75L103,389.78a1.27,1.27,0,0,1,1.79,0,1.23,1.23,0,0,1,0,1.75L94.42,401.68A1.28,1.28,0,0,1,93.53,402Z" style="fill:#1761ae"/><path d="M305.08,195.15a1.29,1.29,0,0,1-.9-.36,1.21,1.21,0,0,1,0-1.75l10.38-10.15a1.27,1.27,0,0,1,1.79,0,1.23,1.23,0,0,1,0,1.75L306,194.79A1.26,1.26,0,0,1,305.08,195.15Z" style="fill:#1761ae"/><circle cx="206.93" cy="292.16" r="8.43" style="fill:#fff"/><circle cx="204.79" cy="695.81" r="199.12" style="fill:#365f93"/><circle cx="204.79" cy="695.81" r="185.14" style="fill:#4674af"/><circle cx="204.79" cy="695.81" r="159.72" style="fill:#578bc0"/><path d="M204.79,823.08A149.74,149.74,0,0,0,342.72,615.24a159.76,159.76,0,0,0-275.86,0A149.74,149.74,0,0,0,204.79,823.08Z" style="fill:#6d9ad1"/><path d="M173.27,478.41h57.46a5.45,5.45,0,0,1,5.45,5.45v22.26a0,0,0,0,1,0,0H167.83a0,0,0,0,1,0,0V483.85A5.45,5.45,0,0,1,173.27,478.41Z" style="fill:#365f93"/><path d="M175.89,501.23h0c-1.62,0-2.94-.63-2.94-1.4V482.75c0-.77,1.32-1.39,2.94-1.39h0c1.62,0,2.94.62,2.94,1.39v17.08C178.83,500.6,177.51,501.23,175.89,501.23Z" style="fill:#5986c5"/><path d="M189,501.23h0c-1.62,0-2.94-.63-2.94-1.4V482.75c0-.77,1.32-1.39,2.94-1.39h0c1.62,0,2.94.62,2.94,1.39v17.08C191.89,500.6,190.57,501.23,189,501.23Z" style="fill:#5986c5"/><path d="M202,501.23h0c-1.63,0-2.94-.63-2.94-1.4V482.75c0-.77,1.31-1.39,2.94-1.39h0c1.62,0,2.93.62,2.93,1.39v17.08C204.94,500.6,203.63,501.23,202,501.23Z" style="fill:#5986c5"/><path d="M215.06,501.23h0c-1.62,0-2.93-.63-2.93-1.4V482.75c0-.77,1.31-1.39,2.93-1.39h0c1.63,0,2.94.62,2.94,1.39v17.08C218,500.6,216.69,501.23,215.06,501.23Z" style="fill:#5986c5"/><path d="M228.12,501.23h0c-1.62,0-2.94-.63-2.94-1.4V482.75c0-.77,1.32-1.39,2.94-1.39h0c1.62,0,2.94.62,2.94,1.39v17.08C231.06,500.6,229.74,501.23,228.12,501.23Z" style="fill:#5986c5"/></g></g></svg>