<svg xmlns="http://www.w3.org/2000/svg" viewBox="0 0 424.43 672.92"><title>L</title><g id="Layer_2" data-name="Layer 2"><g id="Layer_1-2" data-name="Layer 1"><polyline points="347.7 62.83 347.7 621.89 353.43 621.89 353.43 62.83" style="fill:#a5a4a4"/><polyline points="151.85 631.27 74.48 631.27 74.48 33.19 151.85 33.19 151.85 631.27" style="fill:#8ccb8b"/><polyline points="151.85 631.27 113.14 631.27 113.14 33.19 151.85 33.19 151.85 631.27" style="fill:#70c279"/><path d="M221.37,636.52S216.47,606,198,606H31.19c-18.45,0-23.35,30.49-23.35,30.49L0,672.92H229.21Z" style="fill:#54ba66"/><polygon points="5.92 645.43 0 672.92 229.21 672.92 223.29 645.43 5.92 645.43" style="fill:#33a851"/><polyline points="74.48 77.37 74.48 0 365.43 0 365.43 77.37 74.48 77.37" style="fill:#8ccb8b"/><polyline points="113.14 77.37 113.14 38.66 365.43 38.66 365.43 77.37 113.14 77.37" style="fill:#70c279"/><rect x="282.43" y="659.17" width="142.01" height="13.74" style="fill:#e8eaef"/></g></g></svg>