<svg xmlns="http://www.w3.org/2000/svg" xmlns:xlink="http://www.w3.org/1999/xlink" viewBox="0 0 418.08 418.08"><defs><clipPath id="clip-path"><path d="M356.11,224.41c-18.26-14.82-76.77-25.66-146.14-25.66-67,0-123.86,10.11-144.11,24.16C94.07,234,149.38,241.58,213,241.58,273.71,241.58,326.85,234.7,356.11,224.41Z" style="fill:none"/></clipPath></defs><title>O1</title><g id="Layer_2" data-name="Layer 2"><g id="Layer_1-2" data-name="Layer 1"><path d="M372.13,199.39H49.29a13.12,13.12,0,0,0-12.9,15.43c10,56.39,47.53,103.44,98.5,127.25a57.16,57.16,0,0,0,24.22,5.29h103.2a57.16,57.16,0,0,0,24.22-5.29c51-23.81,88.53-70.86,98.49-127.25A13.11,13.11,0,0,0,372.13,199.39Z" style="fill:#ec635c"/><ellipse cx="210.71" cy="211.09" rx="174.52" ry="41.45" style="fill:#c7312d"/><path d="M209.19,180.84c-83,0-151.61,13.35-162.48,30.67,11,17.34,80.93,30.72,165.58,30.72,76.62,0,141.19-11,160.9-25.9h0C373.19,196.73,299.77,180.84,209.19,180.84Z" style="fill:#d36462"/><path d="M355.39,225.06c-18.26-14.82-76.77-25.67-146.14-25.67-67,0-123.86,10.12-144.11,24.17,28.22,11.11,83.52,18.67,147.15,18.67C273,242.23,326.13,235.35,355.39,225.06Z" style="fill:#fff"/><path d="M306.63,252.54s37.57-3.92,66.56-19.39c0,0-13.72,55.5-70.29,92.86,0,0,30.81-36.47,38.78-63.15A92.29,92.29,0,0,1,306.63,252.54Z" style="fill:#f27c79"/><g style="clip-path:url(#clip-path)"><path d="M310.05,214.82c0-.09-.46-.1-.83-.08l-.47.07h0l-.31.05A7.53,7.53,0,0,0,310.05,214.82Z" style="fill:#e5e5e5"/><path d="M102.73,220.61c-1.16.07-1.7.37-2.29.38a2.24,2.24,0,0,1-.81-.09l-.48.22c.61.09,1.24.16,1.86.24.37-.17.75-.34,1.14-.5Z" style="fill:#e5e5e5"/><path d="M267.45,209.83l.32.06.9-.29c-.1,0-.14-.08-.15-.13Z" style="fill:#e5e5e5"/><path d="M103,220.51l1.19-.48c-1.43,0-2.86-.1-4.09-.18l1.74.14-.91.36h-.16a1.25,1.25,0,0,1-.43,0l.42,0-.14.06C101.45,220.46,102.35,220.47,103,220.51Z" style="fill:#e5e5e5"/><path d="M99.25,220.74l-3.5-.26.59.13,3.16.23Z" style="fill:#e5e5e5"/><path d="M120.48,212l.46.09v0A2.24,2.24,0,0,0,120.48,212Z" style="fill:#e5e5e5"/><path d="M346.33,229c0-2.81-2.56-5.54-7.63-8.16a13.44,13.44,0,0,1-3.85-.46c0-.11.83-.07.82-.18a2.32,2.32,0,0,1,1.16.36c.46,0,.89,0,1.23,0-.78-.39-1.61-.76-2.49-1.14a116.83,116.83,0,0,0-20.33-6.07h-.73c-.12,0-.18-.12-.16-.19-2.56-.55-5.27-1.09-8.11-1.6a436.8,436.8,0,0,0-43.52-5.3c-7.42-.56-15.05-1-22.83-1.33a2.91,2.91,0,0,1-1.55-.06c-9.43-.37-19.09-.55-28.9-.55q-9.58,0-18.95.23c.09,0,0,.12,0,.17-.29,0-.43-.1-.41-.16l-2.73.08v.05a1.1,1.1,0,0,1-.46,0q-5.38.16-10.66.4h0l-2.36.11a6.07,6.07,0,0,0,.75,0c.17.1-.51.05-.82.06,0,0,0,0-.17-.06h0q-8.92.44-17.52,1.09c-9.37.72-18.19,1.61-26.38,2.67a6.07,6.07,0,0,1-.73.26.22.22,0,0,1,0-.16l-.9.12h.12a1.86,1.86,0,0,1-.94.1c-5.14.7-10,1.47-14.63,2.3q-5.94,1.08-11.07,2.26c.39.07.49.18,0,.28a8.33,8.33,0,0,1-.88-.09,109.14,109.14,0,0,0-17.42,5.41l-.46.2c.67,0,1.39.09,1.07.2a10.3,10.3,0,0,1-1.31-.09,36.94,36.94,0,0,0-4.83,2.52,1.11,1.11,0,0,1,.35.06,1.19,1.19,0,0,1-.49,0c-3.38,2.16-5.09,4.41-5.09,6.7A5.72,5.72,0,0,0,74,232.63a25,25,0,0,1,4.1-.2l6.58-.17.32.39-7.64.22-.09-.11c-.95.08-2,.14-3,.16,1.71,2,4.75,3.89,9.08,5.75,6.9,2.94,16.77,5.58,29.34,7.85q3.12.57,6.41,1.09a1.76,1.76,0,0,1,.56,0,.91.91,0,0,1-.31,0c11,1.74,23.35,3.14,36.85,4.17,16.88,1.29,34.81,1.94,53.29,1.94q12.44,0,24.49-.39c.08-.06.24-.13.24-.18.27,0,.29,0,.5,0,0,.06,0,.1-.13.13q7.1-.24,14-.61c-.84,0-1.92.12-2.64,0,1.37-.13,3.41-.13,5.16-.14q5.9-.34,11.65-.78a433.86,433.86,0,0,0,43.52-5.3c12.57-2.27,22.44-4.91,29.33-7.85C342.71,235.62,346.33,232.38,346.33,229Zm-10.58,8-7.31-.46.7-.38,7.35.44Zm-73.47,12.91c-.5,0-.44-.18.16-.15C262.58,249.86,262.21,249.86,262.28,249.93Zm-2.08-.49-2.1-.85,2-.16,2.19.84Zm-15.34,1-1.47-.89,2.09-.11,1.56.88Zm.56.18c-.77-.06.19-.2,0,0Zm-2.15.27c-.39,0-.38-.08-.17-.12S243.24,250.87,243.27,250.92Zm-1-.31-1.35-.9,2.1-.1,1.44.89Zm-16.51.6-1,0c-.15,0-.29.08-.28.11-.33,0-.34-.06-.23-.1l-.74,0-.57-.92,2.17-.05.38.53.38-.11-.33-.43,2.16-.06.78.92-2.25.06-.3-.4-.38.09Zm-2.62.45c-.1-.1.19-.14.33-.2C223.79,251.49,223.61,251.69,223.1,251.66Zm-.1-.39-2.27,0-.46-.93,2.17,0Zm4.89-.92c-.12-.09.17-.11.17-.18a6.38,6.38,0,0,1,.89,0l1.28,0,.14.14.17,0c.32,0,.19.19,0,.23l.56.57-2.25.07-.66-.76Zm2.77-.22,2.14-.07,1,.91-2.24.07Zm2.57-.09,2.14-.08,1.11.91-2.23.08Zm2.56-.1,2.13-.09,1.22.9-2.21.1Zm2.55-.11,2.11-.1,1.34.9-2.2.1Zm7.56-.39,2.07-.12,1.67.88-2.17.13Zm2.48-.15,2.05-.13,1.78.87-2.14.14Zm2.47-.16,2-.14,1.89.86-2.13.15Zm2.44-.17,2-.15,2,.86-2.1.15Zm3.53.82c1.12,0,1.7,0,2.65.06a13.84,13.84,0,0,1-2.82.09C256.6,249.86,256.68,249.81,256.82,249.78Zm.89-.14-2-.86,2-.15,2.09.84Zm2.75-1.24,2-.18,2.3.83-2,.18Zm2.35-.21,1.94-.18,2.39.82-2,.19Zm2.32-.22,1.92-.19,2.49.81-2,.2Zm2.29-.22,1.9-.2,2.59.8-2,.2Zm2.27-.24,1.87-.2,2.69.79-1.95.21Zm2.24-.24,1.84-.22,2.79.78-1.92.22Zm2.21-.26,1.81-.22,2.89.77-1.9.23Zm2.17-.26,1.79-.23,3,.76-1.87.24Zm2.15-.27,1.76-.23,3.06.74-1.83.24Zm2.11-.28,1.73-.24,3.15.73-1.8.25Zm2.07-.29,1.71-.24,3.24.71-1.78.26Zm2-.29,1.68-.26,3.33.71-1.75.26Zm2-.31,1.64-.26,3.41.69q-.84.15-1.71.27Zm2-.31,1.61-.27,3.49.68-1.68.28Zm1.92-.32,1.59-.27,3.57.66-1.64.29Zm1.9-.33.87-.15.67-.13,3.66.65-.7.13-.91.16Zm1.85-.33,1.51-.29,3.73.64-1.57.29Zm1.81-.35,1.48-.29,3.81.63-1.54.3Zm1.77-.34,1.44-.3,3.89.6-1.5.31Zm1.73-.36,1.4-.3,4,.59-1.47.31Zm1.68-.36,1.37-.31,4,.57-1.43.32Zm1.64-.37,1.33-.32,4.11.56-1.39.33Zm1.6-.38,1.29-.32,4.17.54-1.35.34Zm1.54-.38,1.25-.32,4.24.52-1.31.34Zm1.5-.39,1.22-.33,4.29.51-1.26.34Zm.63-.78c0-.09.69,0,0,0Zm.5,0c.19-.09.87,0,0,0Zm.33.41,1.17-.33,4.36.49-1.23.35Zm1.4-.4,1.13-.33,4.42.47-1.18.35Zm1.36-.4,1.08-.34,4.48.45-1.14.36Zm1.3-.41,1.05-.35,4.52.44-1.09.36Zm1.25-.42,1-.35,4.58.42-1,.36Zm1.2-.42,1-.36,4.63.4-1,.37Zm1.15-.43.92-.36,4.69.38-1,.38Zm1.1-.43.88-.36,4.72.36-.91.38Zm1.05-.44.83-.36,4.77.34c-.28.13-.57.26-.87.38Zm1-.43.79-.37,4.81.32-.82.39Zm.94-.45.74-.37,4.85.3-.77.39Zm.88-.45.3-.16s0,0,0-.06h.15l.28-.15,4.88.28c-.23.14-.47.27-.72.4Zm.83-.45.65-.37,4.92.26-.68.4Zm.77-.45c.21-.12.41-.25.6-.38l4.95.25-.62.39Zm-52.9-25.23-1.83.57-1.91-.19.8-.26h0v-.15l-1.14.37-1.93-.18,2.38-.83,1.84.18a1.73,1.73,0,0,1,.84-.35c1.31.06.92.29.57.49l1.15.12-.71.22c.28,0,.35,0,.33.06l.78-.24,2,.21-2.66.79-1.88-.2,1.51-.47C270.25,210,270.44,209.92,270.38,209.88Zm-4.8.59c-.51-.07.15-.19.66-.18C266.31,210.41,265.73,210.4,265.58,210.47Zm-33.06-2.81c-.08-.09,0-.14.26-.17l.06-.05-.39-.07-.65.62-2.15-.07.7-.74-.41-.05-.72.78-2.15-.07.75-.91,1.53,0-.14-.09c1.34,0,3.17.08,4.47.23l1.76.07-.29.24c.13.07.15.15,0,.24h-.29l-.5.42-2.14-.08.36-.33Zm-10.13-.86,2.27,0-.63.92-2.17,0Zm-1,.92-2.18,0,.42-.92,2.27,0Zm3.68-.86,2.26.06-.74.91-2.16-.05Zm10.78.33,2.22.1-1.19.9-2.12-.09Zm2.66.11,2.21.1-1.29.9-2.12-.09Zm2.29.37h-.05s.08,0,.15-.06l.26-.17,2.2.1-1.41.9-2.1-.11Zm3-.11c.73,0,1.46.07,2.18.12l-1.51.88-2.1-.11Zm2.62.14,2.18.13-1.63.88c-.69,0-1.39-.09-2.09-.12Zm2.61.15,2.16.14-1.74.87-2.06-.13Zm2.59.17,2.14.14L252,209l-2.05-.14Zm2.57.17,2.12.15-2,.86-2-.14Zm2.54.19.86.06,1.25.1-2.06.85-1.19-.09-.82-.07Zm2.53.19,2.08.17-2.16.84-2-.16Zm2.5.21,2.05.17-2.26.84-2-.17Zm2.47.21,2,.19-2.36.82-1.95-.18Zm8.09.38c.66.06.71.23.83.39C272.37,209.72,272.33,209.55,272.36,209.37Zm1.5.57,1.94.22-2.76.78-1.85-.2Zm2.32.27,1.91.22-2.85.77-1.83-.21Zm2.29.27,1.88.23-2.94.76-1.8-.22Zm2.25.28,1.86.24-3,.75-1.77-.23Zm2.22.29,1.82.25-3.12.73-1.75-.24Zm2.18.3,1.79.25-3.21.72-1.72-.24Zm2.15.3,1.76.26-3.31.71-1.68-.25Zm2.11.32,1.72.27-3.39.69-1.65-.25Zm2.06.32,1.69.28-3.47.68L288,213Zm2,.33,1.65.28-3.55.67L290,213.3Zm2,.34,1.53.27.1,0-3.64.66-.09,0-1.47-.26Zm1.95.35,1.59.29-3.72.64-1.52-.28Zm1.9.35,1.55.3-3.79.63-1.49-.29Zm1.86.36,1.51.31-3.86.61-1.45-.29Zm1.81.37,1.48.32-3.94.59-1.41-.3Zm-2.67,1.36h.82C301.21,215.9,299.67,215.89,300.3,215.75Zm.49-.39,3.95-.59,1.44.32-4,.58Zm5.68-.21,1.4.33-4.08.56-1.35-.31Zm1.67.39,1.36.33-4.15.55-1.3-.32Zm1.63.4,1.32.33-4.22.53-1.26-.32Zm1.57.4,1.28.34-4.28.51-1.22-.32Zm1.53.41,1.24.34-4.34.5-1.18-.33Zm1.48.41,1.19.35-4.4.48-1.14-.33Zm1.42.42,1.15.36-4.45.46-1.1-.34Zm1.37.43,1.11.36-4.51.44-1.06-.34Zm1.32.43,1.06.36-4.56.43-1-.35Zm-1.8.63H317v.06l2.74-.25,1,.36-4.62.41-1-.35,1.5-.14Zm4.28.25c.33.12.66.24,1,.37l-4.66.39-.93-.36Zm1.16.44.93.38-4.71.37-.89-.36Zm1.11.45.3.13.58.25-4.76.35-.55-.24-.29-.12Zm1,.45.84.39-4.8.33-.79-.37Zm1,.47.79.38-4.83.31-.76-.37Zm.94.46.75.39-4.88.29c-.23-.12-.46-.25-.71-.37Zm.89.47.69.39-4.91.27-.66-.37Zm.82.47.65.39-4.94.26-.62-.38Zm.77.47.6.4-5,.23-.57-.38Zm.71.48.55.4-5,.21-.53-.38Zm.65.48.5.4-5,.19-.47-.38Zm.35-.54c.11,0-.07,0,0,0Zm.24,1,.45.4L326,225c-.13-.13-.28-.26-.43-.39Zm.09-1.11c.55,0,.27.06.17.09S330.74,223.36,330.71,223.33Zm-4,9c.11-.13.22-.26.31-.39l5.09.13c-.1.13-.21.27-.33.4Zm5,.23c-.11.13-.24.27-.37.4l-5.06-.16q.2-.19.36-.39Zm-4.63-.7c.1-.13.18-.26.27-.39l5.1.11-.28.41Zm.31-.47c.08-.13.15-.26.22-.39l5.11.09a4,4,0,0,1-.22.4Zm.26-.47c.06-.13.12-.26.17-.39l5.12.06c-.05.14-.11.28-.17.41Zm.2-.47a2.91,2.91,0,0,0,.12-.39l5.13,0c0,.14-.08.28-.13.41ZM328,230c0-.13.06-.26.08-.4l5.13,0c0,.13-.05.27-.08.41Zm.08-.47a2.8,2.8,0,0,0,0-.4h5.14l0,.42Zm0-.48v-.18h5.13c0,.06,0,.13,0,.19Zm0-.26a2.58,2.58,0,0,0,0-.39l5.13,0c0,.13,0,.27.05.41Zm-.06-.47a2.88,2.88,0,0,0-.09-.4l5.13,0c0,.14.07.28.1.42Zm-.11-.48c0-.13-.09-.26-.14-.39l5.12-.07a4,4,0,0,1,.14.41Zm-.17-.47c-.06-.13-.12-.26-.19-.39l5.11-.09a3.75,3.75,0,0,1,.19.41Zm-.23-.47c-.07-.13-.16-.26-.24-.39l5.1-.11.25.41Zm-.29-.47c-.09-.13-.18-.26-.29-.39l5.09-.13c.11.14.2.27.3.41Zm-.35-.47q-.15-.19-.33-.39l5.07-.15c.12.14.24.27.34.41Zm-.4-.47-.38-.39,5-.17.4.41Zm-.27,7.41,5.05.16-.43.41-5-.19Zm4.53.65c-.15.13-.31.27-.48.4l-5-.2.46-.39Zm-.57.48-.53.4-5-.22.51-.39Zm-.64.48-.58.4-5-.24.56-.39Zm7.32,1.92-7.37-.42.65-.38,7.41.4C337.32,236.16,337.09,236.29,336.85,236.42Zm1-.6-7.43-.39.59-.38,7.47.37Zm.93-.6-7.49-.36c.19-.12.37-.25.54-.38l7.52.34Zm.84-.61-7.54-.32c.17-.12.33-.25.49-.38l7.56.3Zm.75-.61-7.58-.28.43-.39,7.6.27Zm.66-.61-7.61-.25.37-.39,4.75.15a2.89,2.89,0,0,1,1.52,0l1.36,0C341.32,233.12,341.19,233.25,341.05,233.39Zm.74-.78v0l-.17.2-5.2-.15s-.12.07-.25,0l.07,0-2.26-.06.31-.39,7.67.19-.08.1h.41s-.08.12.16.12A2.83,2.83,0,0,1,341.79,232.61Zm1.32-2.36H343a.07.07,0,0,1,0,0l-7.73-.07a2.74,2.74,0,0,0,.09-.39l7.74,0-.06.24A.1.1,0,0,1,343.11,230.25Zm.17,1c-.63,0-.53-.12-.33-.21S343.29,231.14,343.28,231.23Zm-.31-.73c-.05.14-.1.28-.16.41l-7.71-.1c0-.13.1-.26.14-.4Zm-6,.43c.32,0,.39.06.32.11l5.4.08c-.06.14-.14.28-.21.42l-7.7-.15c.07-.13.14-.26.2-.39l1.84,0A.3.3,0,0,0,337,230.93Zm5.38.81a4.94,4.94,0,0,1-.27.42l-7.68-.18a4.4,4.4,0,0,0,.26-.39Zm-.59.54a4.53,4.53,0,0,1,1.32,0c-.08.16.47.2.33.36C342.41,232.59,342.78,232.31,341.79,232.28Zm1.65.45Zm1.82-6.11c-.14.09-.42,0-.83,0-.06-.2-.79-.27-.82-.48C344.6,226.22,344.54,226.49,345.26,226.62ZM343.61,229s-.23,0-.4,0v0h-7.07l.36,0a3.12,3.12,0,0,0-1,.16h7.72c0,.14,0,.28,0,.42l-7.73,0a2.56,2.56,0,0,0,0-.39,1.58,1.58,0,0,1-.28.08c-.71,0,.07-.22-.33-.27a3.42,3.42,0,0,1,.62,0c0-.11,0-.23,0-.34l7.74,0c0,.11,0,.21,0,.32C343.39,229,343.42,229,343.61,229Zm-.44-.56-7.74,0c0-.13,0-.26-.07-.39l7.73-.06C343.12,228.16,343.15,228.3,343.17,228.43Zm-.13-.62-7.73.07c0-.13-.08-.26-.13-.39l7.72-.09C343,227.53,343,227.67,343,227.81Zm-.26-2.72Zm0,2.1-7.71.1c-.06-.13-.12-.26-.19-.39l7.71-.13C342.7,226.91,342.76,227.05,342.82,227.19Zm-.3-.62-7.7.14-.24-.39,7.68-.17C342.35,226.29,342.44,226.43,342.52,226.57Zm-.4-.62-7.67.17q-.13-.19-.3-.39l7.66-.2C341.92,225.67,342,225.81,342.12,226Zm-.48-.62-7.65.21-.35-.39,7.63-.23C341.4,225.05,341.52,225.19,341.64,225.33Zm-.57-.62-7.62.25-.4-.39,7.59-.27Zm-.66-.61-7.58.28-.46-.38,7.55-.31Zm-.75-.61-7.53.32c-.17-.13-.34-.26-.52-.38l7.5-.35Zm-8.32-.25-.57-.38,7.45-.38.6.4Zm6.65-.9c.28-.11.51.1,0,0Zm-.09-.06-7.43.39-.63-.38,7.39-.41Zm-1.57-.42c0-.07.42-.07.83-.06A1.67,1.67,0,0,1,336.33,221.86Zm.56-.18-7.38.43-.68-.38,7.33-.45Zm-1.88-1,.78.39-1.77.11a19.79,19.79,0,0,1-4.2.26l-1.34.09-.73-.37Zm-.4-.2-7.24.49-.79-.36,7.19-.52Zm-1.92-.86.65.28-7.17.53-.61-.27-.22-.09,7.11-.55Zm-.69-.29-7.09.56-.89-.36,7-.58Zm-2.11-.46c.29.15-.72.07-.66.18-.47,0,0-.12,0-.18l-5.66.48-.94-.35,6.95-.62,1,.38-1.34.11Zm.66-.69a20.81,20.81,0,0,1-2.41.1l-6,.55c-.33-.12-.65-.24-1-.35l6.86-.65.59.21C329.54,218,330.43,218,330.55,218.2Zm-3.07-.53-6.82.65-1-.34,6.76-.68Zm-1.66-.55-6.73.69-1.09-.34,6.66-.71Zm-1.75-.54-6.62.72-1.14-.33,6.56-.74Zm-1.81-.53-6.53.75-1.18-.32,6.45-.78Zm-1.9-.52-6.41.78-1.24-.32,6.34-.8Zm-2-.51-6.3.81-1.28-.32,6.22-.83ZM312,213.54l-1.34.2.84,0,.13.09,1.11-.16,1.45.32-3.23.47,1,0,.15,0,2.75-.38c.47.1.94.21,1.4.33l-6.18.84-1.32-.31.33-.05a7.7,7.7,0,0,1-1.27-.12h.15l-1.25-.28,1.82-.27h-.39a1.75,1.75,0,0,1-.42-.13l-1.7.26-1.41-.3,5.84-.92Zm-2.26-.47L304,214l-1.45-.29,5.71-.94Zm-2.32-.47-5.66,1-1.5-.28,5.58-1ZM304,212l1.05.19-5.53,1-1-.18-.55-.1,5.44-1Zm-1.4-.25-5.39,1-1.57-.27,5.29-1Zm-5.09-.85-2.15.45c.68,0,1.34-.07,1.91-.08l1.11-.23,1.71.28-5.25,1-1.61-.27,2.52-.51c-.62,0-1.24.06-1.81.07l-1.52.31-1.65-.25,5-1.07Zm-2.63-.4L290,211.53l-1.68-.25,4.84-1.09Zm-2.68-.4-4.8,1.1-1.05-.15h-.09l-.57-.08,4.68-1.11Zm-2.75-.38-4.63,1.12-1.75-.23,4.52-1.14Zm-7.27.77-1.79-.22,4.37-1.15,1.89.23Zm.07-.81c.11,0-.07,0,0,0Zm.82-.39c.12.13-.08.2-.49.24C282.4,209.46,282.57,209.24,283.1,209.25Zm1.49-.72c.18,0,.12.06.33.06,0,.1-.77.06-.66.18C283.94,208.73,284.39,208.57,284.59,208.53Zm-.76.43-4.31,1.16-1.82-.22,4.2-1.17Zm-2.9-.34-4.14,1.18-1.85-.21,4-1.19Zm-2.95-.33-4,1.2-1.88-.2,3.85-1.21Zm-3-.31-3.8,1.21-1.91-.19,3.68-1.23Zm-3.05-.3-3.62,1.23-1.93-.18,3.5-1.25Zm-3.08-.29-3.44,1.25-2-.17,3.32-1.26Zm-5.24-.44,2.11.17-3.26,1.27-2-.17Zm-2.1-.17,1,.08-3.07,1.29-1-.08-1-.08,2.95-1.29Zm-2.16-.16-2.89,1.3-2-.15,1.11-.52h-.21a1.48,1.48,0,0,1,.62-.18l1.25-.59Zm-3.24-.23-2.7,1.31-2-.13,2.58-1.32Zm-3.27-.21-2.51,1.33-2.07-.13,2.38-1.33Zm-3.3-.19-2.32,1.33-2.07-.11,2.19-1.34Zm-3.31-.18-2.13,1.34-2.09-.1,2-1.35Zm-9-.4c.76,0,1.51.05,2.26.09l-.66.51h.1q0,.12.33.15c.58,0,.47-.13.66-.21h.14l.55-.42,2.24.1L241,207l-2.11-.1.59-.44a7.43,7.43,0,0,1-1.26.09l-.39.31-2.12-.09.64-.54s0-.07.11-.09Zm-1.13,0-1.53,1.37-2.14-.07,1.41-1.38Zm-3.4-.11-1.34,1.37-2.14-.06,1.21-1.38Zm-4.35-.41c.83.19-1.26.33-1.49.15A8.81,8.81,0,0,1,228.39,204.84Zm-8.84,1.51.61-1.39,2,0c.24,0,.51,0,.79,0,.59.14-.48.23-.16.42h-.52l-.52,1a5.1,5.1,0,0,1,1,.1l.38-.05h-.35l.81-1.39,2.29,0-.84,1.24h1.1l.88-1.22,2.29.06-.23.27c.4-.08,1-.08.94.23a6,6,0,0,1-1.1,0l-.75.91-1,0c0,.06-.08.13-.33.22a11.29,11.29,0,0,1-1.82-.06c-.43,0-.13.12-.66.09a50.42,50.42,0,0,0-5.62-.12c-.14-.06-.43-.1-.33-.21a19,19,0,0,0,2.64-.05Zm-2.6.37,2.27,0-.4.93-2.18,0Zm1.35-.17c-.16,0-.12,0-.16.06-.27,0-.83,0-1.49,0C216.42,206.32,218.11,206.35,218.3,206.55Zm-1.59-1.63,2.3,0-.54,1.4-2.17,0Zm-.22,1.8-.29.93-2.18,0,.2-.93ZM215,204.63c.52,0,.45.12.49.21C214.61,204.87,214.53,204.7,215,204.63Zm-1.74.26,2.3,0-.35,1.39H213Zm1.9,1.6c-.17.37-2.74,0-3.47,0A23.47,23.47,0,0,1,215.16,206.49Zm-1.4.21-.18.92H211.4l.08-.92Zm-4-1.82h2.3l-.15,1.4h-2.17Zm1.06,1.55c.72,0-.17.17,0,0Zm-1.42.25H211l0,.28h.19c.05.07,0,.11-.17.15h0l0,.5h-2.18l0-.93Zm-.79-1.8,0,1.4h-2.17l-.18-1.4Zm-.35,1.8,0,.93h-2.18l-.14-.93Zm-2.57.94-2.19,0-.25-.93,2.28,0Zm-.54-2.72.25,1.39-2.18,0-.37-1.4Zm-2.08,2.74-2.18,0-.37-.92,2.28,0Zm-1.37-2.72.44,1.4-2.17,0-.57-1.39ZM142,211.41l-1.78.23-3-.76,1.86-.23.13,0a3.71,3.71,0,0,1,.5,0l-.26-.07,1.89-.23,2.83.77-1.81.22-2.29-.6a1,1,0,0,1-.15.11Zm-10.59,1.39.26.06-1.63.26-3.44-.69,1.71-.27,2.11.44a.45.45,0,0,1,.15-.06h.18l-2.1-.44,1.74-.27,3.28.71-1.66.26-.55-.12C131.47,212.73,131.45,212.77,131.37,212.8ZM115.46,216l-1.32.32-4.12-.56,1.38-.33,1.61.23.44,0-1.77-.25.75-.17c-.51-.13.78-.38,1.27-.07l3.39.5-1.36.31-1.64-.23-.55,0Zm-6,1.55-1.16.33-4.38-.48,1.22-.35,2.78.32.46,0-3-.35,1.26-.34,4.26.51-1.2.33-.79-.09a2,2,0,0,1-.33.06Zm-9.6,1.14,1.08-.36,4.5.44-1,.35Zm4.34.5-1,.35-4.6-.41,1-.37Zm-3-.94,1.13-.36,4.44.47-1.08.34Zm1.36-.43,1.17-.35,4.38.48-1.12.34Zm4.37-1.25,1.3-.34,4.2.53-1.25.33Zm1.56-.41,1.34-.33,4.13.55-1.28.32Zm5-1.18,1.45-.31,3.92.59-1.39.31Zm1.75-.38,1.49-.31,3.85.62-1.43.29Zm1.8-.37,1.53-.3,3.77.63-1.47.29Zm1.84-.36,1.57-.3,3.69.64-1.5.29Zm1.88-.36,1.24-.23.36-.06,3.62.65-.35.07-1.19.21Zm1.93-.35,1.63-.29,3.54.68-1.57.27Zm2-.34,1.68-.28,3.45.68-1.6.27Zm6.15-1,1.77-.26,3.19.72-1.7.25Zm2.12-.31,1.8-.26,3.1.74-1.72.24Zm2.16-.3,1.83-.25,3,.75-1.76.24Zm6.7-.86,1.91-.22,2.74.79-1.84.21Zm2.3-.26,1.94-.21,2.64.79-1.86.21Zm2.33-.26,2-.2,2.55.8-1.89.2Zm2.36-.24,2-.2,2.44.81-1.91.19Zm2.39-.24,2-.19,2.34.82-1.92.19Zm2.42-.23,2-.18,2.24.83-1.95.18Zm2.44-.22,2.06-.17,2.14.84-2,.17Zm2.47-.2,2.08-.17,1.42.6.42,0-1.42-.6.36,0,1.73-.13,1.93.86-1.66.13h0c-.05.11-.51.2-1.45.11l-1.26.1Zm5-.39,2.13-.15,1.82.87-2,.14Zm2.17-.47c0-.09.69,0,0,0Zm.38.29,2.14-.14,1.72.87-2.05.14Zm1.27-.11v-.06h.33V208Zm1.3-.06,2.16-.13,1.61.88-2.07.13Zm.19-.36c.24-.1.41.12,0,0Zm2.41.2,2.17-.12,1.49.89-2.08.12Zm2.61-.14,2.18-.12,1.39.9-2.1.11Zm2.62-.14,2.2-.11,1.28.9-2.11.1Zm.13-.4c.5-.08-.45.09,0,0Zm.17.09c.55-.07-.4.1,0,0Zm2.34.18,2.22-.09,1.16.9-2.12.09Zm2.66-.11,2.23-.09,1.05.91-2.13.08Zm2.67-.11,2.24-.08.94.92-2.14.07Zm2.69-.09,2.24-.07.83.91-2.15.07Zm2.69-.08,2.26-.07.71.92-2.15.06Zm2.71-.08,2.26,0,.6.92-2.16.05Zm2.71-.06,2.27,0,.49.92-2.17,0Zm2.72-.05,2.27,0,.38.92-2.18,0Zm2.61,0c-.41,0-.68-.09-.33-.15C200.68,206.58,200.38,206.7,200.45,206.76ZM198.29,205l.64,1.39-2.17,0L196,205Zm-3.45.05.84,1.39-2.16.05-1-1.39Zm-4.47,0c0-.09.68,0,0,0Zm1,.08,1,1.38-2.15.06-.09-.11s-.06,0,0-.06l-1-1.21Zm-3.42.09,1.23,1.38-2.14.07-1.37-1.38Zm-3.41.11,1.43,1.37-2.13.08-1.56-1.37Zm-3.39.12,1.62,1.37-2.12.08-1.75-1.36Zm-3.38.14.74.55.57,0v.33h-.06l.58.43-2.11.1-1.35-.94,0,0c-.13.06-.18,0-.16-.06-.36,0,0,0,.14,0l-.55-.39Zm-4.14-.36a1,1,0,0,1,.33.18h-.49c.42-.09-.37-.16-.67-.09S173.24,205.21,173.67,205.2Zm-1.16.15c.42-.11.24.1,0,0Zm2,.37,1.15.76.21,0c.31.06,0,.09-.17.08l.83.56-2.09.1-2.15-1.34Zm-2.94.14c0-.09.69,0,0,0Zm-.66-.42c.41-.11.24.1,0,0Zm.27.45,2.22,1.34-2.08.11L168.93,206Zm-3.3.18,2.41,1.33-2.06.13-2.54-1.32Zm-3.09-.18c0-.09.69,0,0,0Zm-1,.06c0-.09.69,0,0,0Zm-.8-.06h0Zm0,0h0s0,0,0,0Zm0,0Zm1.68.31,2.59,1.31-2,.14-2.72-1.31Zm-2.46-.42c.35,0-.12.07.16.15l.05,0h0a1.71,1.71,0,0,0-.54-.08C161.83,205.91,162.06,205.9,162.1,205.86Zm-1.49.12c.27.06.66.07.17.12C160.51,206.07,160.4,206,160.61,206Zm.7.51,2.79,1.31-2,.14-2.91-1.29Zm-3.94.29.74-.05,3,1.29-.7,0-1.3.1L156,206.89Zm-2.43.19,3.16,1.28-2,.16-3.28-1.27Zm-3.13.26,3.34,1.26-2,.18-3.46-1.25Zm-3.09.28,3.51,1.24-1.92.18-1.59-.54a.58.58,0,0,1-.18.2c-.72-.06-1-.33-.73-.51l-1.13-.38Zm-3.06.29,3.7,1.23-1.9.19L143.65,208Zm-3,.3,3.87,1.21-.77.09h.48c.05.16-1.25.22-2,.15-.05-.06,0-.09.14-.12l-3.72-1.12Zm-3,.32,4,1.19-1.85.21-4.15-1.18Zm-2.92.33,4.21,1.18-1.81.21L134.84,209Zm-2.87.35,4.37,1.15-1.77.23L132,209.34Zm-5.6.73.09,0a6.61,6.61,0,0,1,1.19-.06l-.36-.08,1.86-.25,4.53,1.13-.6.08s-.07.08-.18.1l-.32,0-.64.08-4-.95a9.46,9.46,0,0,1-1.15.07l4.25,1-1.71.24-4.8-1.09Zm-2.71.39,4.85,1.09-1.67.24-5-1.07Zm-2.66.4,5,1.06-1.64.26-5.11-1.05Zm-5.15.83.49.09a.14.14,0,0,0,0-.17c.44,0,.35.15.38.25l.92.18c.3,0,.78-.05,1.24-.06l-2.22-.43,1.7-.28,5.16,1-1.61.26-2.31-.45a2.26,2.26,0,0,0,0,.29l1.56.3-1.57.27-.07,0a.79.79,0,0,1-.16.36c-.33-.14-.4-.29-.39-.46l-4.78-.88Zm-2.92.51.43-.08,5.45,1-.41.08-1.12.2-5.54-1Zm-2,.37,5.58,1-1.49.29-5.68-1Zm-2.37.45,5.72.94-1.45.3-5.81-.93Zm-2.3.47,5.86.91-.63.14a5.51,5.51,0,0,1,.91.1,10.59,10.59,0,0,1-3.48-.15l.5,0-3.07-.46c-.3,0-.7,0-1.23,0a1.87,1.87,0,0,1,.35-.16l-.7-.1Zm-2.23.48,6,.88-1.37.31-6.07-.87Zm-2.16.49,6.11.85-1.32.32-6.19-.84Zm-2.09.49,5.33.71c.55-.09,1.44-.1,1.5.27-.56,0-1,0-1.27,0l-.61.15-6.31-.81Zm-2,.51,6.34.8-1.23.33-6.42-.78Zm-2,.52,6.46.77-1.19.33-6.53-.75Zm-1.87.53,6.56.74-1.13.33-6.64-.72Zm-1.8.53,6.67.71-1.08.34-6.74-.69Zm-2.23.65H92l.32-.1,6.77.67-1,.35-6.84-.66.59-.19Zm-1.12.45,1.16.11a.36.36,0,0,1,.13-.11,2.39,2.39,0,0,1,1.16.23l4.41.41-1,.35-6.92-.62C90,218.14,90.36,218,90.72,217.9Zm2.44.84c-.29,0-.37-.05-.33-.12C93.33,218.59,93.13,218.69,93.16,218.74Zm-4-.28,7,.61-.94.36-7-.6Zm-3,1.18.1,0,6.81.52-1.29-.32-5.06-.39.94-.39,1.63.14-.44-.12a1,1,0,0,1,.33,0l1,.16,4.51.37-.89.36-.31,0,1.77.43.07,0,.69-.29,3.73.3v-.08h.16l-3.7-.29.94-.38,2.6.22v-.09h0l-2.43-.2,1-.38,4.61.41-.59.22,2.3.07q3.41-1.26,7.69-2.43c-.28-.1-.27-.24.73-.2q6.15-1.62,14-3.05c4.85-.87,10.08-1.67,15.63-2.37-.93-.05-1.69-.2-.31-.28-.13,0-.18.07-.17.12.56,0,1.18,0,1.61,0,6.34-.78,13.11-1.45,20.25-2,14.35-1.1,29.6-1.66,45.32-1.66s31,.56,45.32,1.66q7.32.56,14.11,1.28a2.21,2.21,0,0,1-.48-.15c3-.39,2.54.23,1.33.25,2.53.27,5,.57,7.42.88a7,7,0,0,1,2.16-.17c.44.18-.48.24-1.37.27,4.88.65,9.51,1.36,13.84,2.14q7.25,1.31,13.05,2.81a3,3,0,0,1,.44,0L305,217a83.75,83.75,0,0,1,11.73,3.84c6.07,2.59,9.15,5.34,9.15,8.18q0,2.53-3.23,5h.63a1.76,1.76,0,0,1-.74.08,29.65,29.65,0,0,1-5.81,3.16c-5.86,2.5-14.26,4.75-25,6.68a370.4,370.4,0,0,1-37,4.51c-14.36,1.09-29.6,1.65-45.32,1.65-12,0-23.64-.32-34.87-1-.09.31-.07.53-.4.16-.07-.07-.18-.13-.25-.2q-5-.28-9.8-.65c-9.65-.74-18.61-1.7-26.76-2.86-2.13,0-2.35-.17-1.86-.27l-1.43-.22H134q-3.54-.56-6.86-1.15a160.33,160.33,0,0,1-18-4.19s-.06.05,0,.08h-.83c-.1-.1.3-.12.77-.12q-3.2-1-5.8-2a3.77,3.77,0,0,1-.76.09c0-.15,0-.25.2-.32l-.47-.19A35.11,35.11,0,0,1,98,235.14h-.19a.07.07,0,0,1,0-.08l-.54-.34c-.21,0-.43,0-.64,0s-.18-.25.17-.34C94.28,232.66,93,230.87,93,229a4.34,4.34,0,0,1,.08-.8l-.41-.15.46,0c.56-2.25,3.1-4.45,7.55-6.54-.79-.1-1.54-.21-2.27-.33l-4.29-.3.8-.36c-.55-.11-1.08-.23-1.6-.35h0l-.74.33-4.23-.31a8.21,8.21,0,0,1-.83-.06L85.39,220Zm131.37,31.71-2.27,0-.24-.93,2.18,0Zm-2.94-.9.21.93h-2.26l-.13-.92Zm-.6-.22h.49v.12C214.07,250.36,214,250.31,214,250.23Zm-4.47.3h.27v-.07H212l.1.92h-2.28v-.8c-.13,0-.25,0-.27.05a.54.54,0,0,1-.17,0v.77h-2.28l.1-.93h2.18v.12A.88.88,0,0,1,209.54,250.53ZM166.73,250h-.17l-.05,0-2.14-.15,1.87-.86,2,.14-1.58.77S166.75,250,166.73,250Zm-16.06-1.93-1.57.51-2-.2,2.59-.81,1.9.2-.61.2a3.37,3.37,0,0,1,.46,0l.53-.17,1.93.19-2.41.82-2-.2,1.59-.52A2.22,2.22,0,0,1,150.67,248.06Zm-17.34-1.25c.39,0,.38.08.17.12S133.36,246.86,133.33,246.81ZM130.69,245a3,3,0,0,0-.92-.06l.53.09-3.43.69-1.68-.28,3.49-.67.45.07a4.9,4.9,0,0,1,2.39.22,7.11,7.11,0,0,1,1,0c.23,0,.16.13.16.21a6,6,0,0,1-.67.06l.27,0-3.34.71-1.72-.27,3.41-.7h0C130.69,245.05,130.72,245,130.69,245Zm1.91.39,1.68.26-3.26.72-1.75-.27Zm2,.31,1.7.24-3.17.73-1.77-.25Zm-1.1,1,3.15-.74,1.74.24-.51.12c.11.11-.26.16-.76.19l-1.81.44Zm3.12-.83a5.51,5.51,0,0,1,.66,0c-.06,0-.29.05-.33.09s-.09,0,0,0C136.86,245.94,136.59,245.94,136.64,245.88Zm.5.72h.18l1.43-.35,1.77.23-2.5.63c.17.09,0,.2-.88.2a2.47,2.47,0,0,1-.45-.18l-1-.14,1.27-.3C137.06,246.67,137.15,246.65,137.14,246.6Zm3.74-.06,1.79.22-2.89.77-1.87-.23Zm-.11-.12c.33,0,.25.14-.16.09C140.56,246.46,140.76,246.46,140.77,246.42Zm2.26.39,1.83.22-2.8.77-1.9-.22Zm2.19.26,1.85.21-2.7.79-1.93-.22Zm1.84,0c1,0-.6.14,0,0Zm.39.21,1.87.2-2.6.8-2-.21Zm.93,0Zm5.91.67q1,.1,2,.18l-2.3.83-2-.18Zm2.34.22,2,.17-2.2.84-2.06-.18Zm2.37.21,2,.16-2.1.85-2.08-.17Zm2.39.19,1.86.15h.15l-2,.86-.16,0-1.94-.15Zm2.41.19,2,.15-1.88.86-2.12-.15Zm4.9.35,2.06.13-1.67.88-2.15-.14Zm2.48.15,2.08.13-1.57.88-2.17-.13Zm2.5.15,2.09.12-1.46.89-2.18-.12Zm2.5.14,2.11.11-1.35.89-2.19-.11Zm2.53.13,2.11.1-1.23.9-2.21-.11Zm2.54.12,2.12.09-1.12.9-2.22-.09Zm2.55.1,2.14.08-1,.91-2.23-.08Zm2.56.1,2.15.07-.27.28s0,0,0,0l-.6.6-2.24-.07Zm2.58.09,2.16.06-.8.92-2.24-.07Zm2.59.07,2.16.06-.68.92-2.25-.06Zm2.59.07,2.17,0-.56.93-2.26-.05Zm2.6,0,2.18,0-.45.92-2.27,0ZM98.81,239.09l-1-.37,4.63-.4.95.35h0c.22,0,.26.06.5.06a.14.14,0,0,1,0,.12l.72.25-4.54.43-1-.36,3.79-.35a1,1,0,0,1,.34-.12Zm-10.44-4.8c.16,0,.13,0,.17.06s.45,0,.67.05l-.43-.33,5-.2.51.38-4.76.21s0,0,0,.07c-.31,0-.61.05-1,.06S88.6,234.42,88.37,234.29Zm-.66-9.47c-.37-.17-.11-.33.58-.41l.15-.13,5,.2-.44.38-3.88-.14a3,3,0,0,1-.4.07l4.2.15-.4.39-5.06-.16c.11-.12.23-.23.35-.34Zm3.67-2.53.71-.39,4.86.29-.68.38-2-.11,0,.08,1.85.11-.63.37-4.93-.26.66-.39,1,.06.08,0a5.19,5.19,0,0,0,.91,0Zm6.44-.54c-.24.12-.49.24-.72.37l-4.86-.3.75-.39Zm-4.67-.4c.26-.13.53-.26.81-.38l4.79.33-.77.37Zm4,1.05h.5v.15C96.87,222.57,97,222.48,97.13,222.4Zm0,.3c-.63.09-1.36-.08-.66-.15C96.75,222.59,97.12,222.61,97.13,222.7Zm-1.74.4-.59.38-1.61-.08a.51.51,0,0,1-.3,0l-3-.15.61-.4Zm-.7.46c-.19.12-.37.25-.54.38l-5-.22c.18-.14.37-.27.56-.4Zm-5.49-.92c-.29-.13.75-.16,1-.09S89.64,222.63,89.2,222.64ZM94.05,224c-.17.13-.34.26-.49.39l-5-.2.51-.4Zm-6.17-.71c-.19-.1-.08-.08.16-.15s.35,0,.66,0C88.82,223.29,88.44,223.31,87.88,223.3Zm4.59,2.1c-.13.13-.24.26-.35.39L87,225.65c.12-.13.24-.27.37-.4Zm-.42.47-.3.39-5.09-.12c.1-.13.2-.27.31-.4Zm-.35.47c-.09.13-.17.26-.25.39l-5.11-.1c0-.08.11-.16.16-.25h-.44c-.07-.06.11-.08.16-.12.26,0,.33,0,.34,0a.21.21,0,0,0,0-.06Zm-.3.47c-.07.13-.14.26-.2.39l-5.12-.07c.07-.14.14-.28.22-.41Zm-5.35.4,5.11.07c0,.13-.11.26-.15.4l-5.13-.06C85.93,227.48,86,227.34,86.05,227.21Zm4.93.54c0,.14-.08.27-.11.4l-5.13,0a3.17,3.17,0,0,1,.12-.41Zm-.13.48-.06.39-5.13,0,.06-.41Zm-.06.47c0,.11,0,.23,0,.34v.06H85.64V229c0-.12,0-.24,0-.35Zm0,.47a2.6,2.6,0,0,0,0,.4l-5.14,0c0-.14,0-.27,0-.41Zm0,.48c0,.13.05.26.08.39l-5.13,0a2.7,2.7,0,0,1-.08-.41Zm.1.47a3,3,0,0,0,.13.39l-5.13.07c0-.14-.09-.28-.13-.41Zm.16.47c0,.13.11.27.17.4l-5.11.08c-.07-.14-.13-.27-.19-.41Zm.21.47c.07.14.14.27.22.4l-5.1.1a4.23,4.23,0,0,1-.23-.41Zm.27.48.27.39-5.09.12-.28-.41Zm.33.47c.1.13.21.26.32.38l-5.07.15-.34-.41Zm.39.46c.11.13.24.26.36.39l-5,.17c-.13-.14-.26-.27-.38-.41Zm.44.47.42.39-5,.18-.43-.4Zm-4.84,1.17c.24,0,.23.1.33.15C87.84,234.26,87.85,234.18,87.88,234.11Zm.32-.52,5-.19.47.39-5,.2C88.51,233.86,88.35,233.73,88.2,233.59Zm6.2.74.56.38L90,235l-.58-.4Zm.67.45c.2.13.4.26.61.38l-4.93.27-.63-.4Zm.73.46.65.37-4.89.29-.67-.39Zm.79.45.69.37-4.85.31-.72-.39Zm.84.45.74.37-4.81.32-.78-.39Zm.9.44c.25.13.51.25.78.37l-4.77.34-.82-.38Zm1,.44.82.36h0l-4.73.36h0l-.85-.37Zm1,.44.88.36-4.69.38-.91-.38Zm1.06.43.91.36-4.63.4-1-.38Zm1.92.32c.5-.11.56.1,0,0Zm1.54.95,1,.34-4.48.46-1.09-.36Zm.94.4c.41-.11.24.1,0,0Zm.32,0,1.09.34-4.42.47-1.14-.35Zm1.31.41,1.14.34-4.37.49-1.18-.35Zm1.36.4,1.18.34-4.31.5-1.22-.34Zm1.41.4,1.22.33-4.25.52-1.26-.34Zm1.46.39,1.25.33-4.17.54-1.31-.34Zm1.51.39,1.29.32-4.11.55-1.35-.33Zm1.23-.08c0-.08.61-.07.82,0A2.83,2.83,0,0,1,114.33,241.48Zm.32.46,1.33.31-4,.58-1.38-.33Zm1.61.38,1.36.3-4,.59-1.44-.32Zm1.64.36,1.41.3-3.9.61-1.47-.32Zm1.69.36,1.45.3-3.83.62-1.5-.31Zm1.74.36,1.48.29-3.75.63-1.54-.3Zm1.78.35,1.51.28-3.67.65-1.58-.3Zm1.82.34.6.11.94.16-3.59.67-1-.18-.63-.11ZM85,220.18l7.2.51c-.27.12-.53.24-.78.37l-7.25-.49Zm-1.23.58,7.27.48-.73.37L83,221.16Zm-1.15.6,5.63.34v-.08c.25-.05,1.13-.05,1,.06-.31,0-.44,0-.72,0l1.44.09c-.24.12-.46.25-.68.37l-7.38-.42Zm-1.06.59,7.4.41-.62.38-4.53-.24s0,0,0,.05c-.47,0-.89,0-.83-.09l-2-.11Zm-1,.6,7.46.38-.56.38-7.5-.35Zm-.88.61,6,.27a.3.3,0,0,1,.19-.13,4.1,4.1,0,0,1,1,.06s-.06.08-.14.12l.43,0c-.18.12-.35.25-.51.38l-7.54-.32C79.29,223.43,79.47,223.29,79.66,223.16Zm-.8.61,7.56.3-.46.38-7.58-.28C78.53,224,78.69,223.9,78.86,223.77Zm-.71.61,4.87.17a4.35,4.35,0,0,1,2,0H83.91l0,0,1.82.07c-.14.12-.27.25-.4.38l-7.62-.24C77.86,224.65,78,224.51,78.15,224.38Zm-3.5,3a5.22,5.22,0,0,1-1.32,0c.27-.08.84-.11,1.16-.18S74.56,227.33,74.65,227.37Zm1.52-.43a.36.36,0,0,1,0-.09h.59c.55-.06,1.18-.1,1.59-.18l-2.07,0a4.36,4.36,0,0,1,.24-.41l2.21.05s0,0,0,0l.22,0,5.25.11a4,4,0,0,0-.23.39l-4.84-.09-1.41.19,6.15.1a3.39,3.39,0,0,0-.18.39L76,227.26l.1-.2-.48,0A1.33,1.33,0,0,1,76.17,226.94Zm-.47,1.57c0-.14,0-.27.07-.41l7.73.05a2.63,2.63,0,0,0-.06.39Zm.77.12a5.51,5.51,0,0,1-.66,0C75.84,228.51,76.59,228.53,76.47,228.63Zm-.65-.74c0-.14.08-.28.12-.42l7.73.09a2.91,2.91,0,0,0-.12.39ZM75.67,229c0-.11,0-.21,0-.32l7.74,0c0,.1,0,.2,0,.3s0,.06,0,.09H75.67Zm0,.31,7.73,0c0,.13,0,.26,0,.39l-7.73,0C75.71,229.62,75.69,229.48,75.68,229.35Zm.08.62,7.74-.05a2.79,2.79,0,0,0,.1.39l-7.73.07C75.83,230.25,75.79,230.11,75.76,230Zm.18.62,7.72-.09.16.4L76.1,231C76,230.87,76,230.73,75.94,230.59Zm.26.62,7.71-.12a3.72,3.72,0,0,0,.21.39l-7.7.15C76.34,231.49,76.27,231.35,76.2,231.21Zm7.38,1c0-.09.68,0,0,0Zm-6.75,0-.28-.41,7.69-.16.26.39Zm6.75-3.41c0-.08.55-.06,1-.06C84.73,228.89,83.92,228.82,83.58,228.84Zm.8-2.65L76.7,226c.09-.14.2-.27.3-.41l7.66.2Zm.44-.58-7.65-.21.36-.41,7.63.23Zm-7.3,7.46,7.63-.23c.12.13.24.26.38.39l-7.61.25A5.14,5.14,0,0,1,77.52,233.07Zm.61.62,7.6-.27.16.14c.2-.06.3-.13.17-.23h.49c.12.28,1.47.49,1.16.75a4.78,4.78,0,0,0-1-.36c-.52.15-1.44.22-2.15.33-.17-.07-.18-.13-.09-.18l-5.89.23Zm.71.61,7.56-.3c.15.13.31.25.48.38l-.54,0a5.1,5.1,0,0,1-1.28.19.56.56,0,0,1-.28-.12l-5.42.24Zm.79.61,7.51-.34.55.38-7.48.36Zm.89.6,7.45-.37.6.38-7.42.39C80.93,235.78,80.72,235.65,80.52,235.51Zm1,.6,7.4-.41.65.38-7.36.43C81.94,236.38,81.71,236.25,81.49,236.11Zm1.8,1-.75-.39,7.34-.44.71.37Zm.39.2,7.28-.48.76.37-7.23.5Zm1.23.58,7.2-.51.82.37-7.16.53Zm1.31.58,7.12-.54.86.35-7.07.57Zm1.38.57,7.05-.58.91.36-7,.6Zm1.47.56,7-.61,1,.35-6.9.64Zm1.55.56,6.87-.64,1,.34-6.81.67Zm1.62.55L99,240l1.06.35-6.71.69Zm1.7.54,6.68-.7,1.11.33-6.6.73Zm1.79.54,6.57-.74,1.16.33-6.5.76Zm1.86.52,6.46-.77,1.21.33-6.39.79Zm1.93.52,6.36-.8,1.25.32-6.27.82Zm2,.51,6.24-.83,1.3.31-6.16.85Zm2.08.49,6.12-.85,1.34.31-6,.87Zm2.16.49,6-.88,1.39.3-5.91.9Zm2.22.48,5.86-.91,1.43.29-5.77.93Zm2.29.47,5.73-.94,1.47.29-5.64.95Zm2.35.45,5.6-1,1.51.28-5.5,1Zm2.42.45,5.46-1,1.55.28-5.36,1Zm4.17.72-1.69-.28,5.32-1h0a6.91,6.91,0,0,1,1.69-.27l-1.37-.24,3.57-.66,1.59.27-3.2.62h.23c-.2.21-1.21.26-1.48.45l.52.09Zm.39.71c.51-.11.56.09,0,0Zm.46-.57,5.18-1,1.62.26-5.07,1.06Zm2.61.41,5-1.06,1.66.25-4.92,1.08Zm2.66.4,4.86-1.09,1.7.25-4.76,1.1Zm2.71.39,4.71-1.11,1.74.24-4.6,1.12Zm2.78.37,1.16-.29c-.2-.05.12-.12.56-.14l2.83-.7,1.77.23-4.45,1.15Zm2.82.36L138,247.8l1.8.22-4.27,1.17Zm2.88.35,4.22-1.17,1.84.21-4.11,1.19Zm2.93.34,4-1.19,1.87.2-3.94,1.2Zm3,.32,3.89-1.21,1.89.19-3.77,1.22Zm3,.3,3.7-1.22,1.92.18-3.58,1.24Zm3.06.3,3.53-1.25,1.95.18-3.41,1.25Zm3.11.27,3.35-1.26,2,.17L153.73,251Zm3.15.27,3.17-1.28,2,.16-3,1.29Zm3.19.25,3-1.29,1.77.13c-.06-.15.95-.21,1.2-.11a2.26,2.26,0,0,1-1,.14l-2.82,1.28Zm3.22.23,2.79-1.3,2,.14-2.67,1.31Zm3.25.22,2.6-1.32,2.06.13-2.47,1.33Zm3.29.2,2.41-1.33,2.08.13-2.29,1.33Zm3.31.19,2.22-1.34,2.08.11-1,.64c.22-.08.37.11,0,0l-1.09.7Zm3.32.17,2-1.35,2.1.1-1.89,1.36Zm3.36.16,1.83-1.36,2.11.09-1.7,1.36Zm3.37.14,1.63-1.37,2.13.08-1.5,1.37Zm3.39.12,1.44-1.37,2.14.07-1.31,1.38Zm5.69.17-2.28-.06,1.24-1.38,2.15.06Zm3.43.08-2.29-.05,1-1.38,2.16.05Zm3.44.07-2.29,0,.84-1.39,2.16,0Zm3.45.05-2.3,0,.16-.34h-.21s.13,0,.22,0l.47-1,2.17,0Zm-1.59-1.83.43-.92,2.18,0-.34.92Zm2.71,1.57c-.36,0-.36-.07-.33-.15C201.64,252.75,201.63,252.82,201.61,252.89Zm.34-2.46,2.18,0-.23.93-2.27,0Zm2,2.75-2.3,0,.44-1.4,2.18,0Zm.63-2.73,2.18,0-.11.92h-2.28Zm2.83,2.75h-2.3l.24-1.4h2.18Zm2,0h-.89l0-1.4h2.18l.08,1.4Zm2.57,0-.15-1.4H214l.28,1.39Zm3.44,0-.24-1a3.14,3.14,0,0,1-.87.13c-.12-.09-.07-.38.49-.45l.31,0,0-.13,2.17,0,.48,1.39Zm2.21-2.76,2.18,0,.44.93-2.27,0Zm1.25,2.72-.48-1.23h-.13c-.21,0-.21-.11,0-.15h.07l2.17,0,.67,1.39Zm3.45,0-.74-1.39,2.16,0,.87,1.39Zm3.43-.07-.93-1.38,2.15-.06,1.07,1.39Zm3.43-.08-1.13-1.38,2.15-.06,1.26,1.37Zm3.42-.1-1.33-1.38,2.13-.07,1.47,1.37Zm3.4-.12-1.53-1.37,2.13-.08,1.65,1.37Zm2.1-.61c-.19,0-.14-.05-.16-.09C238.53,252,238.24,252.09,238.14,252.11Zm1.28.48-1.73-1.36,2.12-.09,1.86,1.36Zm3.37-.15-1-.69a4,4,0,0,1-.67,0c-.14,0-.22-.08-.17-.14a3.91,3.91,0,0,1,.65,0l-.74-.52,2.1-.1.42.27.05,0s0,0,0,0l1.58,1.05Zm2.63-.27c-.43,0-.33-.1-.34-.18C245.71,252,245.67,252.13,245.42,252.17Zm.71.11L244,250.94l2.08-.11,2.25,1.33Zm4.41-.08c.24-.1.41.12,0,0Zm2.19-.29-2.4-1.27c-.28,0-.64.05-1,.06l2.35,1.27-2.2.13-2.31-1.33.78-.05a14.76,14.76,0,0,1-1.67-.07c-.07,0,.75-.14-.16-.06,1.19-.21,4.37-.39,4.79-.09,0,0,0,0,0,0l1.42-.09,2.62,1.32Zm3.26-.21-2.7-1.31,2-.14,2.83,1.3Zm3.23-.23-2.89-1.3,2-.14,3,1.28Zm3.88.28c0-.14.16-.25.5-.32S263.68,251.74,263.1,251.75Zm-.7-.52L259.33,250l2-.16,3.19,1.28Zm3.14-.25-3.24-1.27,1.95-.17,3.37,1.26Zm3.12-.27-2.63-1a.64.64,0,0,1-.45-.06l.22,0-.57-.21,1.93-.18,3.55,1.24Zm3.07-.28-3.61-1.24L270,249l3.72,1.22Zm3-.3L271,248.91l1.88-.19,3.9,1.2Zm3-.31-4-1.2,1.86-.21,4.07,1.19Zm2.94-.33-4.12-1.18,1.82-.21,4.24,1.17Zm2.9-.34-2.95-.8c-.24,0-.47,0-.68,0l.3-.06-1-.26,1.79-.22,4.41,1.15Zm2.85-.35L282,247.66l1.76-.23,4.57,1.13Zm2.8-.36-4.62-1.13,1.73-.23,4.72,1.1Zm2.74-.38L287.2,247l1.7-.25,4.88,1.09Zm2.69-.4-4.93-1.07,1.65-.26,5,1.07Zm2.63-.4-5.08-1,1.62-.26,5.18,1Zm2.57-.42-5.23-1,1.59-.26,5.33,1Zm4.16-.72-1.64.29-5.38-1,1.55-.27h0l5.46,1Zm.82-.15-5.52-1,1.51-.29,5.61,1Zm2.39-.45-5.66-1,1.47-.29,5.75.94Zm2.33-.46-5.79-.92,1.43-.3,5.88.91Zm2.26-.47-5.92-.9,1.39-.3,6,.88Zm2.2-.48-.59-.09a2.31,2.31,0,0,1-.75-.08h.16l-4.87-.71,1.35-.3,6.12.85Zm2.13-.5-6.17-.84,1.3-.32,6.24.83Zm2-.5-6.29-.81,1.26-.33,6.36.8Zm2-.51-6.4-.79,1.21-.33,6.47.77Zm1.91-.53-6.51-.75,1.16-.33,6.58.73Zm1.84-.53-6.62-.72,1.11-.34,6.68.7C324.73,241.31,324.34,241.42,323.94,241.54Zm1.75-.54-6.72-.69L320,240l6.79.67Zm1.68-.54-6.82-.67,1-.34,6.89.64Zm1.6-.56-6.91-.63,1-.35,7,.61Zm1.52-.56-7-.6.91-.36,7.05.58Zm2.2-.89-.76.32-7.09-.57.72-.3.14-.06,7.14.54Zm.59-.26-7.16-.53.81-.37,7.21.51Zm1.28-.58-7.24-.5.75-.37,7.29.47Z" style="fill:#e5e5e5"/><path d="M257.34,221.43l-.71-.13h-.22l.85.15-.21.06a5.18,5.18,0,0,0,.54.07l.2-.05h0l.76-.2h-.81Z" style="fill:#e5e5e5"/><path d="M237.52,224.42l3.49.63a.1.1,0,0,1,0,0l-3.34-.6Z" style="fill:#e5e5e5"/><path d="M163.06,221.8l1.19.31c.15,0,.32-.07.33-.13A7.73,7.73,0,0,0,163.06,221.8Z" style="fill:#e5e5e5"/><path d="M161.93,219.7s-.17,0-.38,0l.34,0Z" style="fill:#e5e5e5"/><path d="M209.44,227.66c-4.23,0-7.65.62-7.65,1.38s3.42,1.38,7.65,1.38,7.65-.62,7.65-1.38S213.66,227.66,209.44,227.66Zm4.73,2.14c-.44-.17.32-.36.83-.45C216,229.47,215.69,229.81,214.17,229.8Z" style="fill:#e5e5e5"/><polygon points="208.36 209.1 210.95 209.93 213.07 209.93 214.73 208.43 212.46 208.43 211.53 209.27 208.93 208.43 206.81 208.43 205.14 209.93 207.43 209.93 208.36 209.1" style="fill:#e5e5e5"/><polygon points="285.81 214.75 284.4 215.67 285.91 215.94 292.95 215.08 291.33 214.79 287.4 215.27 288.82 214.34 287.31 214.07 280.27 214.94 281.9 215.23 285.81 214.75" style="fill:#e5e5e5"/><path d="M291.84,217l1.61-.2-3.19-.57,1.12-.13,2.82.5,1.6-.2-2.81-.5,1.11-.13,3.1.55,1.61-.2-4.87-.86-7,.86Zm-2.78-.89c0,.07-.06.13-.5.12C288.63,216.17,288.62,216.1,289.06,216.11Z" style="fill:#e5e5e5"/><path d="M263.1,243.55c.22-.09.3-.18.3-.27l-1.35.17C262.4,243.47,262.75,243.51,263.1,243.55Z" style="fill:#e5e5e5"/><path d="M230.83,220.82l.18-.07a1.12,1.12,0,0,0-.22-.11l-.59.23Z" style="fill:#e5e5e5"/><path d="M228.86,221.39l-.44.18a2.17,2.17,0,0,1,.4,0l1-.4C229.5,221.26,229.17,221.32,228.86,221.39Z" style="fill:#e5e5e5"/><path d="M275.24,224.65l-.88.06A6.13,6.13,0,0,0,275.24,224.65Z" style="fill:#e5e5e5"/><path d="M114.25,227.56l-1.1-.05c0,.08-.07.15-.1.22l1.15,0A.61.61,0,0,1,114.25,227.56Z" style="fill:#e5e5e5"/><path d="M130.81,219.24l-.62-.05a5.26,5.26,0,0,1,1.4-.15c.89-.23,1.8-.45,2.74-.66,0,0,.13-.07.16-.12h.34c2.15-.48,4.45-.95,6.9-1.39l2.81.51a115.4,115.4,0,0,0-15.78,3.84l.83.15c.51-.17,1-.35,1.57-.51l-.14-.05.53-.07a123.5,123.5,0,0,1,13.78-3.22l4.17.75,2.41.63c.87,0,1.62.08,2.42.11.12.19-.38.24-1,.25l1.87.49c.78-.06,1.74-.09,2.77-.11l-.91-.16h0l.91.16h0l.28.05h0l-.28-.05c-.47.07-1.29.18-2.23.25l6.34,1.65c1.46,0,2.71.08,2.68.41.83.06,5.24-.13,4.47.33-1.41,0-2.48-.09-3.48-.18-.27.05-.53.13-.87.17l7.06,1.84-.57.14.82.11c-.34.08-.66.17-1,.26v.14l-.34,0h0l-.85-.09-.12,0v0a.65.65,0,0,1-.14,0l-.38.12.86.09c-.41.12-.8.25-1.17.38l-.88-.08-.55.2.89.08-.16.06-8.06-.68h0c-.41,0-.61,0-.66-.06l-29.53-2.48a1.14,1.14,0,0,1-.49,0l-2.1-.18c.56-.21,1.15-.43,1.77-.64l-1-.09c-.62.21-1.21.43-1.78.65l-3.62-.3c.69-.27,1.42-.53,2.17-.79l-.84-.14c-.82.27-1.6.56-2.34.84l-7.53-.63-.18.07,7.52.63-1.29.53a24.88,24.88,0,0,0-4.46,2.37c.16,0,0,.1.06.14h-.27a7.94,7.94,0,0,0-2.49,2.62l1.1,0q1.35-2.64,7.09-5.09l.83-.35c-.31,0-.31-.17,0-.18a1.78,1.78,0,0,1,.33,0l.1,0,3.61.3c-.42.16-.83.33-1.22.5-3.84,1.64-6.15,3.36-6.91,5.13l.12,0a.64.64,0,0,1-.15.05,3.12,3.12,0,0,0-.23.87l-4,.13a4.09,4.09,0,0,1,.16-.82H113a3.74,3.74,0,0,0-.17.86l-4.61.15h-3.71v.08h1.24l-.59,0,7.68.25a5.07,5.07,0,0,0,1.93,3.19,7.78,7.78,0,0,1,1.21.06,5.16,5.16,0,0,1-2-3.21l4,.13a3.07,3.07,0,0,0,.13.5,3.83,3.83,0,0,1,.9,0c.08.11,0,.19-.33.24l-.5,0c.6,1.52,2.35,3,5.23,4.44l-3.74.25a20,20,0,0,1-3-1.79l-1,.07a20.13,20.13,0,0,0,3,1.79l-7.78.51.15.08,7.79-.51c.52.25,1.07.5,1.66.76A86.74,86.74,0,0,0,136,240.38l.19,0c.24,0,.19.06.07.1,1.51.31,3.09.62,4.73.92l-5.88,1.06.31.05,5.88-1.06c8,1.44,17.14,2.59,27.26,3.45l-3.5,1.36.41,0,3.49-1.36,2.91.24c11.59.88,23.89,1.34,36.56,1.37l.52.51a2.3,2.3,0,0,1,1,.16h-.82l.16.17V248h.45v-.22l.11.1,1.38-1.39q6.49,0,12.85-.19a6.31,6.31,0,0,1,2.24-.27c0,.08.38.1.37.19l1.45-.05v0c.26,0,.28,0,.49,0,0-.1-.41-.12-.66-.18-5.41.19-10.94.3-16.54.32l.73-.72c9.84,0,19.43-.38,28.59-1l1.37.67q-6.93.47-14.14.71a19.24,19.24,0,0,1,2.19.13c4.18-.17,8.3-.38,12.33-.65l2.85,1.41.42,0-2.85-1.4,4.22-.3q8.22-.63,15.61-1.52l-1.23-.09c-4.68.55-9.63,1-14.82,1.42l-4.16.3-1.37-.68,4-.28q5.72-.43,11-1l-1.47-.08q-4.81.51-10,.9l-3.93.28-14.25-7H226l14.28,7.06c-9,.59-18.37.91-28,1l8.36-8.38.82,0,.26.18,1.19-.07-.29-.17,2.21-.13,1,.48a1.39,1.39,0,0,1,.34-.07l-.56-.27.82-.06-.36-.16,2.22-.17.41.16,1.12-.09-.44-.17,2.14-.2.48.16,1.07-.11-.51-.16,2-.23.56.15,1-.12,1.2.15h.06l1.46.18h.06l1.47.18h.06l1.47.19h.05l1.47.19h.06l1.47.19H245l1.46.18h.06l1.47.18H248l1.47.18h.05l1.47.18h.06l1.47.18h.06l1.46.19h.06l1.47.19h.06l1.47.18h.05l1.47.18h.06l1.46.18h.07l1.46.18h.06l9.56,1.2-.52-.14,2.42.44c-2.3.41-4.71.8-7.21,1.16l.42.2c2.63-.38,5.16-.79,7.57-1.22l2.82.51q-4.38.78-9.23,1.46a1.51,1.51,0,0,1,.21.23q3.46-.48,6.71-1c.14-.17.13-.26.48-.35s.49.11.37.2l.37-.06s0,0,.09-.05H276l1.63-.29,5.88,1.06.32-.05-5.88-1.06A109.18,109.18,0,0,0,297,236.43l7.53.63.19-.07-7.53-.63,1.29-.52.36-.16-1.14,0-.25.11-1.27.52-3.61-.31.74-.29-1.27,0-.49.19-17.18-1.44H274l.07,0-23.35-2,.08,0,.9.07.5-.2-.91-.07c.31-.13.6-.27.88-.41l.93.06.4-.21-.94,0c.26-.14.49-.28.7-.42l.95,0,.31-.21-1,0,.06-.05,46.22-1.5c-.27,2.06-2.65,4.07-7.08,6l-.19.07,1.18,0h0c4.52-1.93,6.93-4,7.18-6.08l4-.13c-.12,1.73-1.64,3.42-4.53,5h0c-.67.38-1.42.76-2.25,1.13.3,0,.67.05,1.08.06,4.42-2,6.71-4.11,6.84-6.28l4.61-.15h3.7l0,.2,1.9.06-.06-.81,1.33.05.05.71,1.91.07-.06-.72,1.32.05.06.78,1.91.07-.1-1.24-8.36-.28.07,1h-1.21l.58,0-7.68-.25c-.18-1.94-2.12-3.84-5.76-5.65h.15a.24.24,0,0,1,.24,0l7.4-.49-.15-.08-7.79.52-.09,0h-1.16l.2.1-3.74.24-.43-.2-1.09,0,.47.22-17,1.13v.06H277v0l-1.15.07H276l.2.07,18.27-1.21a16.67,16.67,0,0,1,3.44,2.17,8.87,8.87,0,0,1,1.06-.07,17.51,17.51,0,0,0-3.45-2.17l3.74-.25c3.58,1.78,5.49,3.64,5.69,5.55l-4-.13a5.13,5.13,0,0,0-2-3c.07.13-.19.21-.66.24l-.23,0a5,5,0,0,1,1.75,2.74L253.47,227l-.29-.2.95,0c-.11-.08-.23-.15-.35-.22l-.95.05-.65-.35,21.71-1.43s0-.06.07-.09l-21,1.39-.42-.2-.92.07c-.3-.14-.62-.27-1-.4l.9-.08-.53-.2-.89.08c-.36-.13-.74-.26-1.13-.38l.87-.09-.62-.19-.86.09c-.41-.13-.84-.25-1.29-.37l.82-.1-.51-.13.5-.13-.36-.06h-.24l-.57.15-4.47-.81,1.2-.21,3.79.68h.19l-3.88-.7,1.19-.22,4,.73-.75.19c.26,0,.48,0,.72,0l.55-.15h0l1-.26h0l1-.27h0l1-.26h0l1-.27h0l1-.26h0l1-.27h0l1-.26h0l.32-.08c-.21,0-.47,0-.69,0l-.12,0-.17,0H256v0l-2.08-.38,1.13-.2s0-.06.12-.09h.3l.94-.17,1.35.24H258l-1.48-.27,1.2-.21,1.68.3-.73.19h.78l.48-.12h0l1-.27h0l1-.26h0l1-.27h0l1-.26h0l1-.27h0l6.64-1.73-.76.1,2.42-.44c8.23,1.5,14.7,3.23,19.23,5.16l.85.39,1-.08c-.28-.13-.57-.26-.87-.38-4.58-2-11.13-3.72-19.46-5.23l2.82-.51c8.7,1.58,15.53,3.41,20.31,5.46.37.15.73.31,1.07.47a11.83,11.83,0,0,1,1.49.14q-.72-.34-1.53-.69c-4.84-2.07-11.75-3.93-20.55-5.52l5.88-1.06-.32-.06-5.88,1.06c-8-1.43-17.13-2.59-27.25-3.44l3.49-1.36-.4,0-3.5,1.36-2.9-.23q-8.66-.66-17.79-1c.08,0,.06.05-.22.08s-.32-.08-.18-.09c-6-.22-12.15-.34-18.38-.35l-.83-.83v-.68h-.45v.23l-.1-.11-1.39,1.39c-10.77,0-21.26.38-31.27,1l-2.85-1.41-.42,0,2.85,1.41c-1.41.09-2.82.19-4.21.3q-6,.47-11.62,1.06a2.7,2.7,0,0,1,.9.14q5.37-.57,11.15-1l4.16-.29,1.37.67-4,.29a290.78,290.78,0,0,0-28.94,3.51l-2.82-.51c5.75-1,12.12-1.92,19-2.65-.51,0-.74,0-1.12,0,0,0,.15-.06.17-.1l-.53.05a.05.05,0,0,1,0,0l-.25,0c-6.55.71-12.61,1.57-18.12,2.56l-5.88-1.06-.31.06,5.88,1.06q-3.09.56-5.87,1.16c0,.08.07.13.25.22a4.2,4.2,0,0,1-1.15,0q-3.66.82-6.73,1.71a.19.19,0,0,1,.11,0h-.31c-.88.25-1.72.51-2.52.77l1,.1Q128,220,130.81,219.24Zm-17.91,9.57Zm.1,0h0Zm0,0h0Zm190.39-3.19c-.29,0-.38,0-.33-.12C303.6,225.42,303.4,225.52,303.44,225.57ZM289.55,229c.09.06-.31,0-.33.09-.19,0-.14-.06-.16-.09Zm-7.44,0c.55,0,.24.11.17.18a15.8,15.8,0,0,1-2.32-.06C280.33,229.06,281.62,229.13,282.11,229.05Zm-5.78.12c.1.15-1.24.05-1.33.09C274.52,229.18,275.71,229.15,276.33,229.17Zm-9.59.51c.32,0,.42.06.83.06a3.36,3.36,0,0,1-1,0C266.66,229.74,266.75,229.72,266.74,229.68ZM156.93,219.46l-1.19-.22,1.19.22Zm-.31-.41-.5.09-2.76-.5Zm-2.52-.37.07-.06h0Zm2.11.48.52-.09,1.41.17-.73.13Zm1.3.23.75-.13,1.41.17-1,.18Zm.81.32h0l1.2.22Zm2.79,1.37a.73.73,0,0,0-.33,0c-.5,0-.94-.17-.5-.27C161,220.84,161.59,221,161.11,221.08Zm-1.5-1.14,1.2.22h0Zm2.49.45-1.19-.21h0l1.19.21Zm.66.72c-.64,0-.64-.14,0-.12C163,221.05,162.74,221,162.76,221.11Zm-.08-.78,1.68-.31,1.41.18-1.89.34Zm1.07,1.17c.25,0,.2-.13.66-.12,0,0,.07,0,.17,0A2.11,2.11,0,0,1,163.75,221.5Zm.22-.94,1.92-.35,1.41.18-2.13.39Zm2,.53-1.19-.21,1.19.21Zm-.72-.3,2.15-.39.7.09c.14,0,.26,0,.27,0,.2,0,.2,0,.18.07l.26,0-2.36.43Zm1.3.24,2.38-.43,1.41.17-2.6.47Zm10,.52,1.41.18-3.76.68-.73-.13c-.5,0-.71,0-.65-.12l-1.11-.2,3.31-.6,1.41.18-3.42.62.38,0Zm20.57.7c1.21,0,1.19.3-.16.3-.34,0-.28-.14-.1-.22l-.59,0-1-.53.67,0,1,.52Zm-.14-.51.54,0,0,0-.21.22Zm7.25-.39c-.42,0-.39-.11-.16-.15S204.16,221.31,204.25,221.35Zm0,1.68c2.23.44-4.29.67-2.31.09A12.73,12.73,0,0,0,204.25,223Zm-2.64-.12c-.55-.06-1.57,0-2-.12,0-.08-.06-.17.17-.21h2.31C202.53,222.72,201.73,222.78,201.61,222.91Zm3.64.81v.18a11.62,11.62,0,0,0-2.49.14,22.23,22.23,0,0,0-3.36-.08l2.15.75c.89-.09,1.72-.18,2.7-.25a1.77,1.77,0,0,0,.66.15c.6,0,.71,0,1.66,0,0,.1.47.12.33.24-1.6,0-3.08.09-4.49.19l.39.13-2.55.17a1.23,1.23,0,0,1-.79.11c0,.07.28.09.16.18-1.3.1-2.85.22-4.4.27l-1,.15-.53-.09.15,0h-.51l-.21.1h0a3.35,3.35,0,0,0-.95.47c-1.26,0-6.39.1-5-.45,1,.33,3.42-.11,4.8.09.36,0,.35-.07.33-.15-.69-.12-1.55,0-1.82-.09a6,6,0,0,1,.83-.15,7.27,7.27,0,0,0,1.41,0l-.36-.06.52-.1-.06,0-.55.1-1.2-.22,3.4-.61.57.33-1.08.19h.22l.91-.17.28.17h.72l-.46-.26h0l-.59-.34h0l-.6-.35h0l-.6-.34h0l-.59-.35h0l-.41-.23-.51-.07h-.06l-1-.12c1.71-.18,3.51-.33,5.37-.46l-.14.15,2.27.78A51.57,51.57,0,0,1,205.25,223.72Zm.16-2.25h-.33v-.06h.33Zm.16,2.49c.32.14-.94.33-1.81.26A8.75,8.75,0,0,1,205.57,224Zm2-2.52c-.45,0-.34-.06-.66-.06,0,0,.16,0,.16,0,.26,0,.14-.1.66-.06C207.75,221.37,207.52,221.38,207.56,221.44Zm-.5,1.59c-.38,0-.38-.08-.16-.12S207.28,223,207.06,223Zm-15,3.74c1.62-.25,6,.1,7.6-.27,1.26,0,1.81,0,2.81,0v.24C199.2,226.71,195.46,227.08,192,226.77Zm3.14.42v-.09C195.64,227.06,195.64,227.23,195.16,227.19Zm0,2.7c.55,0,.27.06.17.09S195.19,229.92,195.16,229.89Zm.83,1.28c-.29,0-.37-.09-.33-.18C196.25,231,195.89,231.11,196,231.17Zm7.38,1.8-6.32,2.19.19.19c-2.38-.15-4.66-.35-6.79-.58l.57-.07c0-.06,0-.11.17-.14a.5.5,0,0,1,.3.08l.74-.09,3.85-2.22C198.25,232.62,200.71,232.84,203.37,233Zm-7.05-1.65c.66.05.88.18,1.65.21C197.88,231.61,196.07,231.51,196.32,231.32Zm2,.15c.63,0,.8.08,1.32.09-.23.13-1.2,0-1.32.06C197.92,231.62,198.2,231.49,198.3,231.47Zm3.31-.06c-.41,0-.05-.1,0-.12C202.1,231.31,201.45,231.36,201.61,231.41Zm1.65,3c-.5,0-.49,0-1,0-.18-.15.3-.18.66-.24S203.26,234.27,203.26,234.38ZM197.9,236l-.58.35-1.84-.11,1-.52,1.2.07Zm-25.09-.62L169,234.7l1-.25,4,.72Zm.38.1-1.2.22h0Zm-3.1-1.06,1-.26,4.23.77-1.2.21Zm1.06-.28,1-.25,4.46.8-1.2.22Zm1.09-2.86h0l-2.93.18-.33-.19a5.29,5.29,0,0,1-.61-.05c-.49,0-.21.21-.83.21-.3-.29.47-.39,1.82-.39.16,0,.21.1.16.15Zm-.55-.74c0-.09.2-.15.82-.12v.15A5.9,5.9,0,0,1,171.69,230.55Zm-3.8-.54c-.51,0-.61,0-1,0C166.82,229.83,168.14,229.82,167.89,230Zm2.24,1.85-.35-.16,2.9-.19.68.31-2.84.22-.18-.08a16.83,16.83,0,0,1-3.12,0A9.87,9.87,0,0,1,170.13,231.86Zm3.65.13.76.28-2.74.26-.83-.31Zm.06-8.39c1.49.19,3.54-.06,5.12.15a3.09,3.09,0,0,1,1.11-.11l-1.06-.19h0l1.06.19a2.76,2.76,0,0,1,.54.05s0,0,0,0l.93.17h0l-.93-.17c-.62.52-5,.11-7.06.25C173.09,223.86,173.89,223.75,173.84,223.6Zm1.29-.85h0l1.19.21h0Zm2.58.46h0l1.2.22Zm12.48,0-3.64.66h.13l3.62-.66,1.41.18-5.86,1.06-1.19-.22,1.74-.31v0l-1.84.34-1.2-.22,5.42-1Zm.51,2.19s.11,0,.19,0l-1.06-.19,4.07-.74.58.33-3.46.62h0S191,225.46,190.7,225.45Zm-.16.08h0l-1.19-.22h0Zm-.81-.32-1.2-.22,4.75-.85.58.33Zm-.48.09h0l-1.2-.22Zm-.81-.32-1.2-.22,5.43-1,.57.33Zm-.48.08-1.2-.21h0Zm-.82-.32-1.19-.21,5.88-1.06.37,0,.42.25Zm-.47.09h0l-1.2-.22Zm-2.59-.47-1.2-.21h0Zm-.81-.32-1.2-.21,5.18-.94,1.41.18Zm-.48.09h0l-1.2-.22Zm-.82-.32-1.19-.22,4.94-.89,1.42.18Zm-1.29-.23-1.2-.22,4.72-.85,1.41.18ZM179,225.93l12.27.7a12.23,12.23,0,0,0-3.55,1.32l-2.14-.21a16.44,16.44,0,0,0,3,.74,13.09,13.09,0,0,1-2,0c.33-.37-1.54-.52-2-.83l-9-.84-1,0a19.44,19.44,0,0,1,3.19-1.23Zm14.72,4.26c-1.19-.33-2.36-.65-3.63-1A7.78,7.78,0,0,1,193.67,230.19Zm-.33-1.83v-.18h.5C193.83,228.27,193.85,228.36,193.34,228.36Zm.33,4.43c-.39,0-.67-.14-.33-.21C194,232.56,193.55,232.72,193.67,232.79Zm-1.47-.91-2-.37,1.06-.06c.47.12,1,.23,1.52.34Zm-18.55,1.23-.2-.06,1.91-.21-.5.13h0Zm1.12-1.74.8,0,7.38-.7c-.67,0-.84-.12-.52-.18h.5c.18,0,.18.1.16.17l4.75-.45a12.16,12.16,0,0,0,3,1.11l-1.19.07h-.08l-1.89.11h-.08l-1.89.11h-.07l-1.89.11h-.08l-1.89.11h-.08l-1.89.1h-.07l-1.3.07-.36.09h0l-.72.19A19.2,19.2,0,0,1,174.77,231.37Zm5-1.87a28.89,28.89,0,0,1-4.63-.12c-.2,0-.07,0,0-.09C176.13,229.34,178.81,229.34,179.79,229.5Zm.16-.87c.06.22-1.61.12-2.48.18C176.76,228.58,179,228.56,180,228.63Zm-.33,1.62v.06C178.82,230.34,179.32,230.15,179.62,230.25Zm1,.12c.24-.1.41.11,0,0Zm2.48-2c.72,0,0,.15,0,.24C182.23,228.64,182.79,228.48,183.09,228.42Zm2,.06c.83,0,0,.15,0,.21C184.48,228.67,184.81,228.51,185.08,228.48Zm1.49,1.05c.4-.12.23.1,0,0Zm1.83-.83.06,0,.16.05-.07,0-.09,0Zm2.79-.34a7.36,7.36,0,0,1-1.49,0c-.14-.17.52-.19,1.33-.18C191,228.28,191.33,228.27,191.19,228.36Zm-2.39,4.31,1.2-.22-1.2.22Zm-.48-.09-4.08-.73,1.83-.11,3.45.63Zm1.29-.23-3.4-.61,1.82-.11,2.78.5Zm-11.13-.11,5.87,1.06-1.2.22-5.65-1Zm.08,0,.26-.06,1.34-.08,5.48,1-1.2.21Zm1.75-.15,1.82-.1,4.8.86-1.19.22Zm5.9,1.07,1.2-.22-1.2.22Zm.82-.32-4.75-.86,1.82-.1,4.13.74Zm1,1c.54,0,1,.2.33.24S187.78,233.87,188.05,233.81Zm2-1.37,1.2-.22-1.2.22Zm.44-.07c.78,0,.77.16.83.3C190.72,232.64,190.43,232.54,190.53,232.37Zm.38-.25-2.73-.5,1.82-.1,2.1.38Zm-15.72.37.65.2-2.64.29-.7-.22Zm-3,1.39,1-.26,4.69.85-1.19.21Zm1.06-.28,1-.26,4.93.9-1.2.21Zm6.38.72h0l-1.19.22Zm-.38-.1-5-.9,1-.25,5.16.93Zm-3.89-1.17,1-.26,5.39,1-1.2.21Zm1.06-.28,1-.25,5.62,1-1.19.22Zm10.41,2.45,1.6-.2.42,0-1.62.47-1.11-.12Zm2.4-.11.36,0-1.56.48-.39,0Zm1.27.13.67.07-1.44.49-.72-.07Zm1.06.11.79.07-1.34.5-.85-.08Zm1.74.15.27,0-1.25.51-.29,0Zm.68.05,1.24.09-1.11.52-1.34-.1Zm.33-5.12c.35,0,.51.08.5.18C194.48,230.58,194.33,230.52,194.33,230.43Zm-1.1-4.42h0l.51.1h0Zm.77.34v.12c-.43,0-.42-.06-.49-.12Zm7.28-.93c1.19,0,1.71-.12,2.64-.09,0,.12-.33.18-.33.3C202.81,225.54,201.3,225.69,201.28,225.42Zm-5.52-3-.81.06-1.14-.52.89-.06Zm-1.76.13-.19,0-1.23-.51.2,0Zm-.6.05-1.29.11-1.37-.5,1.4-.12Zm-2.39.21-1.64.17-1.58-.48,1.77-.18Zm-4.61-.15.43,0,.65.18Zm-7,.7-1.2-.21,4.48-.81,1.41.18Zm-1.29-.23-1.2-.22,4.25-.76,1.41.17Zm-1.3-.23-1.19-.22,4-.72,1.41.17Zm-1.29-.24-1.2-.21,3.78-.69,1.42.18Zm-3.88-.7-1.19-.21,3.08-.56,1.41.18Zm-.27.34c-.39,0-.38-.08-.17-.12S171.33,222.23,171.36,222.28Zm-1-.57-1.2-.22L172,221l1.41.18Zm-1.29-.23-1.2-.22,2.61-.47,1.42.17Zm-.48.08-1.2-.21h0l1.2.21Zm.09,0h0l1.2.22Zm2.49.45h0l-1.19-.22Zm0,1c-.6,0-.54-.15.17-.15C171.49,223,171.12,223,171.19,223Zm.06-1h0l1.2.21h0Zm5.07,3.2-.21.06-2.62-.29c.3-.09.61-.18.94-.26Zm-3.41-.06,2.66.28-.92.3-2.73-.26Zm-1.6.54,2.78.24L174,226l-2.8-.23Zm-.33.13,2.8.23-.28.12-2.83-.23Zm-.5.2,2.84.22-.08,0-2.85-.22Zm-.51.23,2.88.2-.34.17-2.91-.19Zm-.53.26,2.92.18-.21.12-2.94-.18Zm1.24.41-1.2,0-.76,0,.16-.1Zm-2-.61c.36,0,.36.08.33.15C168.55,226.51,168.46,226.39,168.71,226.35Zm1,2.79a41,41,0,0,1-6.44-.18C165.4,229,167.54,229.06,169.7,229.14Zm-4.13.66c-1.67-.11-2.19-.43-3.8-.54-.08-.12,0-.19.33-.24a6.57,6.57,0,0,1,2.15.36,8.14,8.14,0,0,1,2.15,0C166.68,229.62,165.37,229.57,165.57,229.8Zm-3-1.59c-.05.79-4.12.06,0,0Zm-44.3-.57,1.07-.07a7.59,7.59,0,0,1,2.57-2.67,3.49,3.49,0,0,0-.5-.08s.37,0,.65,0a24.36,24.36,0,0,1,4-2.12l1.2-.48,40.84,3.42-.64.26-.91-.06-.47.2.93.07c-.29.13-.56.27-.82.41l-.94-.06-.36.22.94.05c-.23.14-.43.28-.62.42l-1,0-.11.09L119,228.65a2.9,2.9,0,0,1,.23-.85A3.14,3.14,0,0,0,118.29,227.64Zm38.35.18H156c-.15-.13.17-.17.5-.21S156.91,227.77,156.64,227.82Zm-7.11,1.8c.58,0,.29.09.17.12S149.56,229.66,149.53,229.62Zm-1.48-1.83c.38,0,.09.13,0,.15-.53,0-.34-.08-.66-.09C147.27,227.77,148.17,227.87,148.05,227.79Zm-12.73,1.41a1.44,1.44,0,0,1-.66.06A.93.93,0,0,1,135.32,229.2Zm-4.63.18v-.12h.49C131.23,229.34,131.13,229.39,130.69,229.38Zm-4.3,0c-.42,0-.39-.11-.16-.15C126.75,229.28,126.44,229.34,126.39,229.41Zm-1.49.06c-.52,0-.56-.12-.33-.21C125.14,229.25,125.18,229.41,124.9,229.47Zm-3.14.12c-.2,0-.34,0-.33-.09C121.79,229.48,121.75,229.54,121.76,229.59Zm-.35,6.17q-.87-.37-1.65-.75l3.75-.25c.49.24,1,.48,1.57.72q1.92.81,4.29,1.59c0-.06,0-.12.16-.14h.33a6.18,6.18,0,0,0,.73.12c-1.65-.53-3.15-1.08-4.48-1.65-.55-.24-1.07-.47-1.56-.71l40-2.64h-.31s0,0-.1,0l-39.75,2.62a21.37,21.37,0,0,1-2.06-1.15,1.56,1.56,0,0,1-.58,0,1.68,1.68,0,0,1,.48-.09c-1.9-1.24-3-2.53-3.19-3.84L164.76,231l-.37,0,.31.22,1-.05c.22.14.45.28.71.42l-.94,0,.35.18-.37,0a.09.09,0,0,1,0,.07l-.12,0,1.56-.1c.25.12.51.24.8.36l-.92.07.5.2.9-.07,1.07.39-.88.08.59.2.87-.09c.39.13.8.25,1.23.37l-.84.1.67.19.83-.1.39.1-.38.1h0l-1,.26h0l-1,.27h0l-1,.26h0l-1,.26h0l-.18.05.75,0h0l1-.26,3.76.68-1.19.22-3.47-.63,0,0,3.4.62-1.2.21-3.31-.6.58-.15a3,3,0,0,0-.43.06,1.91,1.91,0,0,0-.37-.06l-.31.08h0l-1,.26h-.05l-1,.27h-.05l-1,.26h0l-1,.27h0l-1,.26h0l-1,.27h0l-1,.26h0l-1,.26h0l-1,.27h0l-1,.26h0l-1,.27h0l-1,.26h0L147,240.22l.76-.1-2.42.44q-2.7-.48-5.14-1h-.08l-.05,0c-3.24-.7-6.14-1.44-8.68-2.23-.35,0-.66.07-1,.11a122.62,122.62,0,0,0,14.12,3.3l-2.81.51C133,239.63,126.19,237.8,121.41,235.76Zm32.78,2.8,1-.25.73.13-1.2.21Zm.42.11-2.75.5,2.26-.59Zm1.78-.15h0l-1.2.22Zm-.39-.1-.75-.13,1-.26,1,.17Zm.48.09,1.2-.22h0l-1.2.22Zm.82-.32-1-.18,1-.26,1.2.22Zm.47.08,1.2-.21-1.2.21Zm.82-.32-1.22-.22,1-.25,1.43.26Zm-.16-.49,1-.26,1.67.3-1.2.22Zm2,.87a1.36,1.36,0,0,1-.83.12C159.6,238.36,160,238.35,160.45,238.33Zm-.09-.52h0l1.2-.22h0Zm.81-.32-1.68-.31,1-.25,1.9.34Zm-.62-.58,1-.26,2.13.39-1.19.21Zm1.06-.28,1-.25,2.37.42-1.2.22Zm3.82.26h0l-1.19.22Zm-.38-.1-2.38-.43,1-.26,2.6.47Zm-1.32-.71,1-.25,2.83.51-1.2.21Zm1.06-.28,1-.25,3.06.55-1.19.22Zm1.06-.27,1-.26,3.3.6-1.2.22Zm-14.73,7.18h-.26s0,0,0,0c-3.08-.43-6-.9-8.83-1.4l2.82-.51c7.55,1.36,16.22,2.45,25.8,3.26l-1.68.66C162.62,244.14,156.65,243.48,151.12,242.71Zm21.13,2.23-2.87-.23,1.68-.65,2.74.22c8.33.63,17,1,26,1.2,0-.07.1-.13.19-.19-8.88-.17-17.51-.57-25.75-1.2l-2.71-.22,8.13-3.16-.55,0-8,3.1c-9.46-.8-18-1.88-25.48-3.22l4.17-.75,9.47-1.19a.06.06,0,0,1,0-.08h.53l23.16-2.9.44,0-.57.15,1,.13.55-.15,2.05.23-.51.15,1.08.11.48-.15,2.15.2-.44.16.45,0-10,3.87h.49l9.88-3.84.26,0,.41-.16,2.23.17-.36.17,1.17.07.33-.16,2.29.13-.28.17,1.19.06.26-.17,1.33.06,8.34,8.35q-3.47,0-6.89-.08a1.1,1.1,0,0,1-.39.2c2.47,0,5,.07,7.48.08l.72.72C195.73,246.27,183.65,245.81,172.25,244.94Zm34.15-7.05c.15.24-.69.31-1,.47C204.06,238.27,205.32,237.91,206.4,237.89Zm1.82,1.7c.12-.17-.91-.28-.17-.39C208.17,239.32,209.18,239.55,208.22,239.59Zm3.31,4.77c.46-.11-.54-.05-.83,0a5.2,5.2,0,0,1,1.32-.09C212.07,244.31,212,244.36,211.53,244.36Zm.5-12.82-2.26-.78-2.32.8c-6-.15-10.76-1-11.86-2.05l4.34-.41-4.44-.42a1.56,1.56,0,0,1,.4-.33l-.89,0v-.18a7.43,7.43,0,0,1,1.37,0c1.78-.79,5.7-1.39,10.48-1.55l2.26.78,2.31-.8c6,.16,10.77,1,11.86,2L219,229l4.43.42C222.54,230.48,217.93,231.34,212,231.54Zm3.13-10.34c-.57,0-.59-.11-.33-.15C215.39,221,215.09,221.14,215.16,221.2Zm6.66,1.73-.19-.19q3.59.22,6.8.57l-1.78.23-3.86,2.21c-2.16-.29-4.63-.51-7.29-.64Zm-4-2c.76,0-.13.18,0,0Zm2.84.82.11-.07,1.7.09-.94.53-.34,0Zm28.5,9.93-.73.33-2.84-.22c.23-.1.46-.2.67-.31Zm-2.47-.42.18-.1,1.75,0,1.44.07-.44.26Zm1.28.94-.07,0L245.1,232l.06,0Zm-.26.1-.69.25-2.74-.26.64-.23Zm-5,.5,0,0,2.61.3h0Zm2,.46-.23.07-.66-.18Zm-1.72-.55.78-.24,2.7.27-.84.26Zm-1.8-.24-1.23-.32-12.27-.7a12.3,12.3,0,0,0,3.54-1.31l12.11,1.14,1.05,0A18.72,18.72,0,0,1,241.16,232.47Zm0,2.21v.15c-.46,0-.93,0-.83-.15Zm-18-2.15-.34-.2,1.23-.17a37.09,37.09,0,0,1-6.86-.87,36,36,0,0,1,9.25,1l-.82,0,.88.16-2.72.49-.58-.33,1.9-.34h-.15ZM220,226.32c1-.09,1.08.12,2,0,.19,0,.19.11.17.18a2.29,2.29,0,0,0-1.33.33c-.85,0-1.07,0-2,0-.7-.15-.19-.31-.17-.45.44,0,1,0,.83.09C219.74,226.46,219.72,226.37,220,226.32Zm3.14,1.2c.19.08.19.18-.17.24-.78,0-.72-.11-.82-.21A8.68,8.68,0,0,1,223.1,227.52Zm11.33-2.72,5.88,1.06-.26.07-1.34.07-5.47-1ZM233.35,223v-.12a4.65,4.65,0,0,1,.82,0C234.25,223,233.82,223,233.35,223Zm1.18,1.81,1.19-.21,5.65,1-1,.25Zm4,1.23-1.83.11-4.8-.87,1.2-.22Zm-2,.11-1.82.11-4.13-.75,1.2-.21Zm-2,.12-1.82.1-3.45-.62,1.19-.22Zm-2,.11-1.82.1-2.78-.5,1.2-.22Zm-5.07-.49h0l1.19-.21Zm.38.11,2.73.49-1.83.1-2.1-.38Zm-1.68.13,1.2-.22h0Zm.39.1,2,.37-1.06.06c-.48-.12-1-.23-1.52-.33Zm1.38,2.46c0-.08-.07-.17.16-.21,1,0,1.09.12,1.16.27A9,9,0,0,1,228.06,228.66Zm.16.21c-.19,0-.14-.06-.16-.09C228.61,228.76,228.32,228.84,228.22,228.87Zm-4.13-2.73c.48,0,.54.14.5.27a5.91,5.91,0,0,1-1.33,0C223.29,226.28,223.67,226.21,224.09,226.14Zm2.47,6.27,1.2.21-3.41.62-.57-.33Zm1.29.23,1.2.22-4.08.73-.57-.33Zm1.29.23,1.2.22-4.75.86-.57-.33Zm1.3.24,1.19.21-5.42,1-.57-.33Zm1.29.23,1.2.22-5.88,1.06-.37-.05-.43-.24Zm1.29.23,1.2.22-5.65,1-1.41-.18Zm-4.33,1.25,5.62-1,1.2.21-5.41,1Zm6.92-.78,1.2.22-5.18.93-1.42-.18Zm1.29.23,1.2.22-4.95.89-1.41-.17Zm1.29.24,1.2.21-4.71.85-1.42-.17Zm-1.37-6.6c.55-.07-.4.1,0,0Zm6.49-1.22L231,227.84a12.12,12.12,0,0,0-3-1.1l1.19-.07h.07l1.9-.1h.07l1.89-.1h.08l1.89-.11h.07l1.9-.11h.07l1.9-.11h.07l1.3-.08.36-.09h0l.71-.19a19.51,19.51,0,0,1,2.51,1Zm-.32-1.31.36-.09,2.14-.24.24.07-2.65.29-.08,0h0Zm1.06-.28.85-.22.33.1-1.23.14h.05Zm-.08.59-.37-.12,2.69-.28.4.13Zm.66-.95-4.93-.89,1.2-.22,4.71.85Zm-.08,0-1,.25-5.16-.93,1.19-.21Zm-1.06.27-.4.11a.09.09,0,0,1,0,.1l-.51,0-.08,0-.11,0h-.2l.23,0-1,.26-5.63-1,.63-.12c-.39,0-.69-.13-.62-.27l1.85.05.63-.11Zm-11.82-2.12.92-.26.57.07ZM230,223l-.29,0,1.59-.47.32,0Zm-.68-.08-1.12-.11,1.48-.49,1.21.12Zm-2.34-.23-.84-.07,1.3-.51.92.08Zm.4-1a8.21,8.21,0,0,1-1-.06C226.47,221.52,227.68,221.54,227.4,221.68Zm-.73.39.39,0-1.3.5-.35,0Zm-2.22.43-1.94-.14,1-.52,2.11.14Zm-12.1,19.67c-.38-.06-.06-.25-.16-.36C212.83,241.82,212.51,242.11,212.35,242.17Zm.66,1.23c-.39-.06-.09-.24,0-.3C213.57,243.15,213.33,243.33,213,243.4Zm3.48-6.65c-.47-.06-1-.19-.34-.27S217.14,236.65,216.49,236.75Zm1.32.24c-.12-.16.18-.23.49-.3s.34.06.66.06C219,236.9,218.77,237,217.81,237Zm-1.74-4.05c2.21-.12,4.27-.3,6.13-.53l.38.21h0l.6.34h0l.59.34h0l.59.34h0l.59.34h0l.6.34h0l.41.24.52.06h0l1,.13c-1.71.17-3.5.33-5.37.45l.15-.14Zm5.64,3.41-.27-.16.44-.43.39,0,1,.53Zm2-.12-1.05-.52h0l1.06.52Zm1.16-.08-1.13-.52,1-.07,1.21.51Zm1.51-.11-1.24-.51.52,0,1.28.5Zm1.57-.13-1.36-.5.56,0,1.39.49Zm1-.1-1.43-.49.9-.09,1.5.49Zm1.94-.19-1.57-.48.14,0,1.58.48Zm.56-.06-1.38-.41,1.07.14h.06l1.22.16Zm3.29,0,4.7-.85,1.19.22-4.48.81Zm1.53.19,4.46-.81,1.2.22-4.25.77Zm1.52.19,4.23-.76,1.2.21-4,.73Zm3,.38.57-.1h-.25l-.43.08-.4-.05-.75,0a.54.54,0,0,1,.23-.11l-.49-.06,4-.72,1.2.22-2.22.4h.1l0,0,2.24-.41,1.19.22-3.54.64Zm1.53.2,3.53-.64,1.2.21-3.32.6Zm4.58.57,1.1-.2H248l-1.07.2-1.42-.18.13,0h-.3c-.39,0-.78,0-1.21,0a.34.34,0,0,1,.19-.09l-.33,0,3.29-.6,1.2.22-1.73.31h.17l1.65-.3,1.2.22-1,.19h0l0,0,1.15-.21,1.2.21-2.62.48Zm4.58.57,1.66-.3H253l-1.55.28-1.41-.18.91-.16s0,0,0,0l-1,.19-1.42-.18,2.6-.47,1.2.22-.48.08h.26l.31,0,.24,0c.79,0,1.65,0,2,0s-.11.18-.69.22l.92.16-1.91.35Zm1.52.19,1.9-.34,1.2.22-1.68.3Zm1.53.2,1.66-.3,1.2.21-1.45.26Zm1.52.19,1.43-.26,1.2.22-1.21.21Zm1.53.19,1.2-.22,1.19.22-1,.18Zm1.53.19,1-.17,1.2.21-.75.14Zm1.52.19.73-.13,1.2.22-.51.09Zm1.53.19.5-.09,2.75.5Zm30.13-3,3.61.3a107.74,107.74,0,0,1-18.85,4.86l-2.82-.51A102.7,102.7,0,0,0,292.39,236.05Zm-1-.09a101.93,101.93,0,0,1-17.84,4.6l-4.17-.75L258.57,237c.12.14.15.28-.1.38,0-.26-.48-.44-.85-.63l-.88-.23a1.92,1.92,0,0,1-.74,0c.11-.16-.26-.24-.5-.37l-2.16-.56c-.32,0-.67,0-1.15,0,.13,0,.18-.07.17-.12l.45,0-6.46-1.68.94-.25.83.1.67-.18-.85-.1c.43-.12.84-.25,1.23-.38l.87.09.59-.19-.88-.09.79-.29Zm-41.13-4.91-.07,0-.52,0Zm-1-4.59c.21.1.41.21.6.32l-1.35.08-1.87-.06-.28-.15Zm-.53-.25-2.86.2-.52-.22,2.82-.22Zm-.75-.32-2.81.23-.13-.05,2.8-.24Zm-.63-.24-2.76.25-.4-.14,2.73-.26Zm-.67-1.44-1,.25-4.7-.84,1.2-.22ZM240.45,223c.12-.15-.28-.21-.16-.36.38,0,1.23-.08,1.16.06a8.18,8.18,0,0,1,2.48,0C244.11,223.18,242.11,223,240.45,223Zm8.42.61-4-.73,1.2-.21,3.78.68Zm1.06-.28-3.77-.68,1.2-.21,3.55.64Zm1-.27-3.52-.64,1.19-.22,3.32.6Zm-2.92-2c1,0,.26.17,0,0Zm4,1.73-3.29-.6,1.19-.21,3.08.55Zm0-1.31a7.41,7.41,0,0,0-2.32-.15c-.23,0-.61-.13-.33-.18,1.13,0,2.13.11,3,.21C252.48,221.46,252,221.44,252,221.5Zm.33-.06c.51-.1.27.1,0,0Zm.74,1.09L250,222l1.2-.22,2.85.52Zm1.06-.27-2.83-.51,1.2-.22,2.61.47Zm2-.53-.7.18V222l-.19,0-.09,0-2.59-.47,1.19-.21Zm3.26-.85-1.66-.3,1.19-.22,1.45.27Zm1.06-.28-1-.18a1,1,0,0,1-.29,0l-.12,0,.07,0,0,0,.36,0,.8-.14,1.21.22Zm1.06-.27-1.2-.22,1.2-.21,1,.17Zm1.06-.28-1-.17,1.19-.22.75.14Zm1.06-.27-.73-.13,1.2-.22.51.09Zm1.06-.28-.5-.09,2.76-.49Zm4.3-1.28-2.94.37c.54,0,1.2,0,1.94,0a5.92,5.92,0,0,1-2.44.09l-16.79,2.1,1.54,0c.78.19,3.44,0,3.81.3-2.23-.1-4.3,0-6.28-.12-.25,0-.36.07-.34.15l-.89-.08-6,.75.17,0c-.1,0-.2,0,0,.06a8.3,8.3,0,0,1-1.13,0l-3.77.48-1.59-.2.55-.15-1-.12-.52.15-2.09-.22.47-.16-1.09-.1-.45.16-1.25-.11s0,0-.16.08a3.42,3.42,0,0,1-.73-.16h0c-.16-.06-.19-.13-.12-.19l-.63,0-.38.16-2.26-.15.33-.17-1.17-.07-.3.17-2.32-.13.25-.17-1.2-.05-.21.16-.35-.34a.85.85,0,0,1-.3.1,5.58,5.58,0,0,0-.67,0c-.09-.14.13-.22.83-.21l-1.32-1.32-3.64-.09a1.71,1.71,0,0,1,.33-.18,5.79,5.79,0,0,0,1.49-.06,15,15,0,0,0,1.63.13l-.55-.55c-2.07.07-4.41.08-6.37.21-.56-.07-.19-.2-.17-.33a28.17,28.17,0,0,0,4.8-.15c.33,0,1,.06,1.53.06l-5.57-5.58c11.44,0,22.53.48,33,1.28l2.7.22-11,4.28h0L231,220.57a1.72,1.72,0,0,1,.39,0l11.22-4.36a1.11,1.11,0,0,1,.31-.12l4.85-1.89c9.46.8,18,1.88,25.48,3.22Zm-56.54-1.63a2.66,2.66,0,0,1-1.49.21C210.83,216.61,211.84,216.52,212.52,216.59Zm64.31.22-2.82.51c-7.55-1.36-16.21-2.45-25.79-3.26l1.68-.65C259.9,214.25,268.94,215.4,276.83,216.81Zm-46.75-4.62c0-.06.13-.12.46-.16.69,0,.83.11.76.21,5.22.22,10.34.52,15.32.9l2.87.23-1.68.66-2.74-.22c-10.68-.82-22-1.25-33.65-1.3l-.73-.72C217.28,211.81,223.76,211.94,230.08,212.19ZM210.38,214h0Zm0,0,0,0Zm-.09.08s0,0,0,0l0,0,0,0s0,0,0,0ZM214,223c.38.2-.2.29-.5.45-.79,0-1.34,0-1.49.09a16.77,16.77,0,0,0-2.64-.06c-.38,0,0,.16-.5.15-1.13-.09-1.13-.3-1-.54C210.36,223,212.16,223.05,214,223Zm-4.47-4.35a20.93,20.93,0,0,1-4.46.18v-.12C206.44,218.71,208.15,218.5,209.54,218.62Zm-2-5.15h.66v.18C207.52,213.68,207.51,213.58,207.56,213.47Zm-30.73-.65c9.83-.65,20.12-1,30.69-1l-.72.72c-9.84.05-19.43.38-28.6,1ZM174.24,214l3.93-.28,2.24,1.11a2.5,2.5,0,0,1,.42,0l-2.25-1.11c9-.59,18.38-.91,28-1l-4,4a.16.16,0,0,0,.15,0c.36,0,.08.11-.29.14l-4.05,4.05h-.25l.14.1-.08.08-2.15.11-.29-.17-1.18.07.32.17-.88,0L187.31,218h-.25s.1,0,.18,0l-6-3-.42,0,12.78,6.31-1,.07-.37-.17-1.13.09.39.16-2.19.18-.44-.16-1.1.1.47.16-2.11.22-.51-.16-1,.12.54.15-1.51.18-.55-.07H183l-1.46-.19h-.06l-1.47-.18H180l-1.47-.18h-.05l-1.47-.18h-.06l-1.47-.18h-.06l-1.46-.18h-.06l-1.47-.19h-.06l-1.47-.19h0l-1.47-.19h-.06l-1.47-.18h-.06l-1.46-.18h-.06l-1.47-.18h-.06l-1.47-.18h0l-.53-.07h-.09a1.6,1.6,0,0,0-.39.08l.52.07L162,220l-.05,0,.89-.16,1.42.18-1.67.3-1.14-.21-.33,0a.13.13,0,0,1,0-.07l-1.06-.19,1-.19h0l0,0-1.08.19-1.2-.21,1-.18,1.24.15c-.12-.06-.26-.09-.1-.16l-.71-.09h-.06l-1.46-.19h-.21a.35.35,0,0,1-.18.05c-.45,0-.36-.05-.33-.12l-.81-.1h-.06l-9.56-1.2,7,1.26s0-.08.15-.1c.42,0,.39.11.17.15h-.05l.86.16-.86-.16a.45.45,0,0,1-.27,0l-7-1.26.53.14-2.42-.44C153.92,216,163.54,214.81,174.24,214Z" style="fill:#e5e5e5"/><path d="M256.16,243.13l.85,0c1.81-.2,3.59-.41,5.33-.63a.85.85,0,0,1-.26-.22c-2.11.28-4.28.53-6.51.77Z" style="fill:#e5e5e5"/><path d="M286.14,242.57c-.29,0-.2-.12.18-.19a20.36,20.36,0,0,1,3-.23l-.59-.38a23.07,23.07,0,0,0-3.67.34c-1.35.25-1.87.59-.5.84,2,.36,4.31-.25,5.17-.09.23,0,.14.1-.15.15a23.69,23.69,0,0,1-2.54.24l.61.38a22.12,22.12,0,0,0,3.05-.32c1.51-.29,1.78-.62.54-.84C289.3,242.11,287,242.73,286.14,242.57Z" style="fill:#e5e5e5"/><path d="M277.57,243.56l1.1.29,3.1-.59.76.2-2.73.52,1.11.29,2.74-.52.76.2-3,.57.75.19.66,0,4.43-.83-4.86-1.26Z" style="fill:#e5e5e5"/><path d="M211.93,248.33a20.83,20.83,0,0,1,3,.22l1.08-.35a29.56,29.56,0,0,0-3.93-.22c-1.95,0-3.65.18-3.62.53,0,.51,4,.37,4,.59,0,.06-.29.09-.72.1-.7,0-1.89-.07-2.7-.16l-1.07.35a32.87,32.87,0,0,0,3.42.16c2.19,0,3.68-.22,3.66-.53,0-.5-4-.35-4-.57S211.38,248.33,211.93,248.33Z" style="fill:#e5e5e5"/><path d="M137.28,242.9a14.85,14.85,0,0,0-4.65-.08c-2,.37,1.44.78.57.93a2.64,2.64,0,0,1-.88,0,3.87,3.87,0,0,1-1.31-.46l-2.13.12a5,5,0,0,0,1.82.54,14.8,14.8,0,0,0,4.67.09c1.93-.35-1.52-.76-.66-.92a3.45,3.45,0,0,1,1.1,0c.63.11,1.22.35,1.27.54l2.12-.11A3.69,3.69,0,0,0,137.28,242.9Z" style="fill:#e5e5e5"/><polygon points="130.69 241.83 125.41 242.26 128.73 241.5 126.86 241.18 118.16 241.78 120.02 242.09 125.68 241.62 122.08 242.44 123.85 242.73 129.51 242.26 125.9 243.08 127.84 243.41 132.56 242.14 130.69 241.83" style="fill:#e5e5e5"/><path d="M98.14,229.22l5.32-.12-.11-.46-8.5-.69.1.46,5.88.38-5.76.13.11.44,5.86.38-5.75.13.11.47,8.27-.3-.1-.46Zm2.13-.68c0-.09.69,0,0,0Z" style="fill:#e5e5e5"/><polygon points="129.86 216.38 127.06 215.69 132.23 215.91 133.65 215.63 128.59 214.39 127.07 214.69 129.9 215.38 124.69 215.17 123.27 215.45 128.33 216.69 129.86 216.38" style="fill:#e5e5e5"/><path d="M132.67,214.52c.54,0,.25.15-.17.19l3.61.43,1.71-.34-2.45-1,4.25.59,1.72-.34,0,0h-.2l.1,0-3.27-1.5-1.7.34,2.7,1-4.59-.64-1.62.32,2.69,1-4.59-.64-1.79.35,3,.36C132.13,214.61,132.59,214.58,132.67,214.52Z" style="fill:#e5e5e5"/></g><polygon points="195.78 224.34 209.04 211.09 222.3 224.34 195.78 224.34" style="fill:#999"/><polygon points="209.04 211.09 222.3 224.34 208.94 224.34 209.04 211.09" style="fill:#787878"/><path d="M231.16,229.84c0,3-9.95,5.38-22.22,5.38s-22.23-2.41-22.23-5.38v-1.78c3.66-1.76,13.54-3.61,22.23-3.61,9.84,0,19.31,1.81,22.22,4Z" style="fill:#2b2b2b"/><ellipse cx="208.94" cy="227.76" rx="22.23" ry="5.39" style="fill:#595a5a"/><path d="M386.8,157c-9.2-27.15-92.47-23.61-187.67,7.48-2.31.75-4.62,1.52-6.95,2.31-3.28,1.11-6.52,2.25-9.74,3.39-.15.06,29-.54,35.06-.54,82.62-25.19,151.34-30.12,158.08-10.2,7.34,21.65-61.33,64.46-153.36,95.63S49.64,293.94,42.31,272.29c-1.67-4.94.61-11,6.24-17.75A71.91,71.91,0,0,1,45,246q-1.93,2-3.61,4c-8.71,10.22-12.34,19.59-9.73,27.3,9.42,27.8,96.55,23.42,194.61-9.8S396.21,184.79,386.8,157Z" style="fill:#f27c79"/><rect x="16.96" y="276.38" width="21.23" height="10.05" transform="translate(-111.45 35.19) rotate(-23.86)" style="fill:#f27c79"/><rect x="379.01" y="147" width="21.23" height="10.05" transform="translate(-28.2 170.57) rotate(-23.86)" style="fill:#f27c79"/><circle cx="209.04" cy="209.04" r="203.5" style="fill:none;stroke:#c7312d;stroke-miterlimit:10;stroke-width:11px"/><rect x="297.97" y="4.94" width="12.99" height="21.9" rx="4.02" transform="translate(38.53 -133.21) rotate(26.29)" style="fill:#c7312d"/><rect x="107.29" y="390.91" width="12.99" height="21.9" rx="4.02" transform="translate(189.76 -8.83) rotate(26.29)" style="fill:#c7312d"/></g></g></svg>