<svg xmlns="http://www.w3.org/2000/svg" viewBox="0 0 1561.29 108.6"><title>O2-n</title><g id="Layer_2" data-name="Layer 2"><g id="Layer_1-2" data-name="Layer 1"><rect width="1561.29" height="108.6" style="fill:#fff"/><text transform="translate(683.34 59.17)" style="font-size:50px;fill:#f26422;font-family:Helvetica-Bold, Helvetica;font-weight:700">N</text><rect x="69.19" y="69.04" width="5.52" height="39.56" style="fill:#9bb4de"/><rect x="86.66" y="88.82" width="5.52" height="19.78" style="fill:#9bb4de"/><rect x="104.13" y="88.82" width="5.52" height="19.78" style="fill:#9bb4de"/><rect x="121.6" y="88.82" width="5.52" height="19.78" style="fill:#9bb4de"/><rect x="139.07" y="88.82" width="5.52" height="19.78" style="fill:#9bb4de"/><rect x="156.53" y="88.82" width="5.52" height="19.78" style="fill:#9bb4de"/><rect x="174" y="88.82" width="5.52" height="19.78" style="fill:#9bb4de"/><rect x="191.47" y="88.82" width="5.52" height="19.78" style="fill:#9bb4de"/><rect x="208.94" y="88.82" width="5.52" height="19.78" style="fill:#9bb4de"/><rect x="226.41" y="69.04" width="5.52" height="39.56" style="fill:#9bb4de"/><rect x="243.87" y="88.82" width="5.52" height="19.78" style="fill:#9bb4de"/><rect x="261.34" y="88.82" width="5.52" height="19.78" style="fill:#9bb4de"/><rect x="278.81" y="88.82" width="5.52" height="19.78" style="fill:#9bb4de"/><rect x="296.28" y="88.82" width="5.52" height="19.78" style="fill:#9bb4de"/><rect x="313.75" y="88.82" width="5.52" height="19.78" style="fill:#9bb4de"/><rect x="331.21" y="88.82" width="5.52" height="19.78" style="fill:#9bb4de"/><rect x="348.68" y="88.82" width="5.52" height="19.78" style="fill:#9bb4de"/><rect x="366.15" y="88.82" width="5.52" height="19.78" style="fill:#9bb4de"/><rect x="383.62" y="69.04" width="5.52" height="39.56" style="fill:#9bb4de"/><rect x="401.09" y="88.82" width="5.52" height="19.78" style="fill:#9bb4de"/><rect x="418.55" y="88.82" width="5.52" height="19.78" style="fill:#9bb4de"/><rect x="436.02" y="88.82" width="5.52" height="19.78" style="fill:#9bb4de"/><rect x="453.49" y="88.82" width="5.52" height="19.78" style="fill:#9bb4de"/><rect x="470.96" y="88.82" width="5.52" height="19.78" style="fill:#9bb4de"/><rect x="488.43" y="88.82" width="5.52" height="19.78" style="fill:#9bb4de"/><rect x="505.89" y="88.82" width="5.52" height="19.78" style="fill:#9bb4de"/><rect x="523.36" y="88.82" width="5.52" height="19.78" style="fill:#9bb4de"/><rect x="540.83" y="69.04" width="5.52" height="39.56" style="fill:#9bb4de"/><rect x="558.3" y="88.82" width="5.52" height="19.78" style="fill:#9bb4de"/><rect x="575.77" y="88.82" width="5.52" height="19.78" style="fill:#9bb4de"/><rect x="593.23" y="88.82" width="5.52" height="19.78" style="fill:#9bb4de"/><rect x="610.7" y="88.82" width="5.52" height="19.78" style="fill:#9bb4de"/><rect x="628.17" y="88.82" width="5.52" height="19.78" style="fill:#9bb4de"/><rect x="645.64" y="88.82" width="5.52" height="19.78" style="fill:#9bb4de"/><rect x="663.11" y="88.82" width="5.52" height="19.78" style="fill:#9bb4de"/><rect x="680.57" y="88.82" width="5.52" height="19.78" style="fill:#9bb4de"/><rect x="698.04" y="69.04" width="5.52" height="39.56" style="fill:#9bb4de"/><text transform="translate(837.9 59.17)" style="font-size:30.473106384277344px;fill:#5587c5;font-family:Helvetica-Bold, Helvetica;font-weight:700">NE</text><rect x="715.63" y="88.82" width="5.52" height="19.78" style="fill:#9bb4de"/><rect x="733.1" y="88.82" width="5.52" height="19.78" style="fill:#9bb4de"/><rect x="750.56" y="88.82" width="5.52" height="19.78" style="fill:#9bb4de"/><rect x="768.03" y="88.82" width="5.52" height="19.78" style="fill:#9bb4de"/><rect x="785.5" y="88.82" width="5.52" height="19.78" style="fill:#9bb4de"/><rect x="802.97" y="88.82" width="5.52" height="19.78" style="fill:#9bb4de"/><rect x="820.44" y="88.82" width="5.52" height="19.78" style="fill:#9bb4de"/><rect x="837.9" y="88.82" width="5.52" height="19.78" style="fill:#9bb4de"/><rect x="855.37" y="69.04" width="5.52" height="39.56" style="fill:#9bb4de"/><rect x="872.84" y="88.82" width="5.52" height="19.78" style="fill:#9bb4de"/><rect x="890.31" y="88.82" width="5.52" height="19.78" style="fill:#9bb4de"/><rect x="907.78" y="88.82" width="5.52" height="19.78" style="fill:#9bb4de"/><rect x="925.24" y="88.82" width="5.52" height="19.78" style="fill:#9bb4de"/><rect x="942.71" y="88.82" width="5.52" height="19.78" style="fill:#9bb4de"/><rect x="960.18" y="88.82" width="5.52" height="19.78" style="fill:#9bb4de"/><rect x="977.65" y="88.82" width="5.52" height="19.78" style="fill:#9bb4de"/><rect x="995.12" y="88.82" width="5.52" height="19.78" style="fill:#9bb4de"/><rect x="1012.58" y="69.04" width="5.52" height="39.56" style="fill:#9bb4de"/><rect x="1030.05" y="88.82" width="5.52" height="19.78" style="fill:#9bb4de"/><rect x="1047.52" y="88.82" width="5.52" height="19.78" style="fill:#9bb4de"/><rect x="1064.99" y="88.82" width="5.52" height="19.78" style="fill:#9bb4de"/><rect x="1082.46" y="88.82" width="5.52" height="19.78" style="fill:#9bb4de"/><rect x="1099.92" y="88.82" width="5.52" height="19.78" style="fill:#9bb4de"/><rect x="1117.39" y="88.82" width="5.52" height="19.78" style="fill:#9bb4de"/><rect x="1134.86" y="88.82" width="5.52" height="19.78" style="fill:#9bb4de"/><rect x="1152.33" y="88.82" width="5.52" height="19.78" style="fill:#9bb4de"/><rect x="1169.8" y="69.04" width="5.52" height="39.56" style="fill:#9bb4de"/><rect x="1187.26" y="88.82" width="5.52" height="19.78" style="fill:#9bb4de"/><rect x="1204.73" y="88.82" width="5.52" height="19.78" style="fill:#9bb4de"/><rect x="1222.2" y="88.82" width="5.52" height="19.78" style="fill:#9bb4de"/><rect x="1239.67" y="88.82" width="5.52" height="19.78" style="fill:#9bb4de"/><rect x="1257.14" y="88.82" width="5.52" height="19.78" style="fill:#9bb4de"/><rect x="1274.6" y="88.82" width="5.52" height="19.78" style="fill:#9bb4de"/><rect x="1292.07" y="88.82" width="5.52" height="19.78" style="fill:#9bb4de"/><rect x="1309.54" y="88.82" width="5.52" height="19.78" style="fill:#9bb4de"/><rect x="1327.01" y="69.04" width="5.52" height="39.56" style="fill:#9bb4de"/><text transform="translate(1312.3 59.17)" style="font-size:50px;fill:#f26422;font-family:Helvetica-Bold, Helvetica;font-weight:700">S</text><text transform="translate(519.36 59.17)" style="font-size:30.473106384277344px;fill:#5587c5;font-family:Helvetica-Bold, Helvetica;font-weight:700">NW</text><text transform="translate(997.88 59.17)" style="font-size:50px;fill:#f26422;font-family:Helvetica-Bold, Helvetica;font-weight:700">E</text><text transform="translate(1152.45 59.17)" style="font-size:30.473106384277344px;fill:#5587c5;font-family:Helvetica-Bold, Helvetica;font-weight:700">SE</text><text transform="translate(362.52 59.17)" style="font-size:50px;fill:#f26422;font-family:Helvetica-Bold, Helvetica;font-weight:700">W</text><text transform="translate(208.94 59.17)" style="font-size:30.473106384277344px;fill:#5587c5;font-family:Helvetica-Bold, Helvetica;font-weight:700">SW</text><text transform="translate(54.99 59.17)" style="font-size:50px;fill:#f26422;font-family:Helvetica-Bold, Helvetica;font-weight:700">S</text><rect x="16.79" y="88.82" width="5.52" height="19.78" style="fill:#9bb4de"/><rect x="34.26" y="88.82" width="5.52" height="19.78" style="fill:#9bb4de"/><rect x="51.73" y="88.82" width="5.52" height="19.78" style="fill:#9bb4de"/><rect x="1327.01" y="69.04" width="5.52" height="39.56" style="fill:#9bb4de"/><rect x="1344.48" y="88.82" width="5.52" height="19.78" style="fill:#9bb4de"/><rect x="1361.94" y="88.82" width="5.52" height="19.78" style="fill:#9bb4de"/><rect x="1379.41" y="88.82" width="5.52" height="19.78" style="fill:#9bb4de"/><rect x="1396.88" y="88.82" width="5.52" height="19.78" style="fill:#9bb4de"/><rect x="1414.35" y="88.82" width="5.52" height="19.78" style="fill:#9bb4de"/><rect x="1431.82" y="88.82" width="5.52" height="19.78" style="fill:#9bb4de"/><rect x="1449.28" y="88.82" width="5.52" height="19.78" style="fill:#9bb4de"/><rect x="1466.75" y="88.82" width="5.52" height="19.78" style="fill:#9bb4de"/><rect x="1484.22" y="69.04" width="5.52" height="39.56" style="fill:#9bb4de"/><rect x="1501.69" y="88.82" width="5.52" height="19.78" style="fill:#9bb4de"/><rect x="1519.16" y="88.82" width="5.52" height="19.78" style="fill:#9bb4de"/><rect x="1536.62" y="88.82" width="5.52" height="19.78" style="fill:#9bb4de"/><text transform="translate(1466.87 59.17)" style="font-size:30.473106384277344px;fill:#5587c5;font-family:Helvetica-Bold, Helvetica;font-weight:700">SW</text></g></g></svg>