<svg xmlns="http://www.w3.org/2000/svg" viewBox="0 0 465.07 435.49"><title>Asset 14</title><g id="Layer_2" data-name="Layer 2"><g id="Layer_1-2" data-name="Layer 1"><path d="M229.58,1.56C116.17,1.56,24.23,93.5,24.23,206.92s91.94,205.35,205.35,205.35,205.35-91.94,205.35-205.35S343,1.56,229.58,1.56Zm0,401.46c-108.31,0-196.1-87.8-196.1-196.1s87.79-196.1,196.1-196.1,196.1,87.79,196.1,196.1S337.88,403,229.58,403Z" style="fill:#e8eaef"/><path d="M259.37,206.92,240.05,187.6a10.73,10.73,0,0,0-15.17,0l-19.32,19.32H11.49A220.81,220.81,0,0,0,116.52,395v31.49a9,9,0,0,0,9,9H340.7a9,9,0,0,0,8.95-9V394.26A220.78,220.78,0,0,0,453.43,206.92Z" style="fill:#f9bc15"/><path d="M11.49,206.92a222.24,222.24,0,0,0,105,189l187.83.51c62.33-39.06,100.77-110.48,100.77-189.46Z" style="fill:#ffcc60"/><path d="M232.46,184.45a10.67,10.67,0,0,0-7.58,3.15l-19.32,19.32h53.81L240.05,187.6a10.69,10.69,0,0,0-7.59-3.15" style="fill:#ffcc60"/><path d="M232.18,206.92h27.19L240.05,187.6a10.69,10.69,0,0,0-7.59-3.15Z" style="fill:#f9bc15"/><path d="M0,0V435.49H465.07V0ZM349.65,394.26v32.27a9,9,0,0,1-8.95,9H125.47a9,9,0,0,1-9-9V395.87a222.24,222.24,0,0,1-105-189H24.23C24.23,93.5,116.17,1.56,229.58,1.56S434.93,93.5,434.93,206.92h18.5A220.78,220.78,0,0,1,349.65,394.26Z" style="fill:#fff"/></g></g></svg>